<svg xmlns="http://www.w3.org/2000/svg" xmlns:xlink="http://www.w3.org/1999/xlink" version="1.1" id="Layer_1" x="0px" y="0px" viewBox="0 0 512 512" style="enable-background:new 0 0 512 512;" xml:space="preserve">
<g>
	<path d="M460.8,68.27H85.33c-4.75,0-9.34,2.01-12.56,5.51c-3.22,3.5-4.84,8.24-4.45,12.97l34.13,409.6   c0.74,8.83,8.15,15.65,17.01,15.65h273.07c8.86,0,16.27-6.82,17.01-15.65l34.13-409.6c0.39-4.74-1.23-9.48-4.45-12.97   c-3.22-3.5-7.81-5.51-12.56-5.51H51.2c-9.43,0-17.07,7.64-17.07,17.07c0,9.43,7.64,17.07,17.07,17.07l356.92,0l-31.29,375.47   H135.17L103.88,102.4H460.8c9.42,0,17.07-7.64,17.07-17.07C477.87,75.91,470.23,68.27,460.8,68.27L460.8,68.27z M238.93,187.73   v204.8c0,9.43,7.64,17.07,17.07,17.07c9.43,0,17.07-7.64,17.07-17.07v-204.8c0-9.43-7.64-17.07-17.07-17.07   C246.57,170.67,238.93,178.31,238.93,187.73z M324.33,186.32l-17.07,204.8c-0.78,9.39,6.2,17.64,15.59,18.42   c9.39,0.78,17.64-6.2,18.43-15.59l17.07-204.8c0.78-9.39-6.2-17.64-15.59-18.43C333.36,169.94,325.11,176.92,324.33,186.32z    M153.66,189.15l17.07,204.8c0.78,9.39,9.03,16.37,18.43,15.59c9.39-0.78,16.37-9.03,15.59-18.42l-17.07-204.8   c-0.78-9.39-9.03-16.37-18.43-15.59C159.86,171.51,152.88,179.76,153.66,189.15z M204.29,89.47l13.83-55.34h75.75l13.84,55.34   c2.29,9.14,11.55,14.7,20.7,12.42c9.14-2.29,14.7-11.55,12.42-20.7l-17.07-68.27C321.86,5.33,315.03,0,307.2,0H204.8   c-7.83,0-14.66,5.33-16.56,12.93l-17.07,68.27c-2.29,9.14,3.27,18.41,12.42,20.7C192.74,104.18,202,98.62,204.29,89.47   L204.29,89.47z" fill="#f44336"/>
</g>
</svg>