<svg xmlns="http://www.w3.org/2000/svg" xmlns:xlink="http://www.w3.org/1999/xlink" fill="#03a9f4" version="1.1" id="Capa_1" width="800px" height="800px" viewBox="0 0 463.229 463.229" xml:space="preserve">
<g>
	<path d="M418.193,245.165l-84.252,22.564l-32.476-18.734v-35.156l32.105-18.436l84.621,22.674c1.701,0.454,3.41,0.678,5.104,0.678   c8.692,0,16.646-5.805,18.995-14.598c2.815-10.508-3.415-21.307-13.922-24.119l-46.391-12.43l42.766-24.553   c9.426-5.414,12.688-17.449,7.273-26.879c-5.433-9.43-17.444-12.697-26.874-7.27l-42.854,24.611l12.427-46.407   c2.812-10.505-3.409-21.306-13.921-24.118c-10.442-2.739-21.285,3.422-24.101,13.92l-22.58,84.256l-32.306,18.553l-30.625-17.707   V124.86l61.931-61.93c7.688-7.692,7.688-20.151,0-27.844c-7.69-7.691-20.146-7.691-27.842,0l-34.089,34.088V19.688   C251.183,8.816,242.365,0,231.492,0c-10.871,0-19.688,8.815-19.688,19.688V68.93l-33.841-33.844c-7.691-7.691-20.15-7.691-27.843,0   c-7.691,7.692-7.691,20.151,0,27.844l61.684,61.683v37.544l-30.393,17.534l-32.306-18.536l-22.564-84.242   c-2.811-10.498-13.603-16.676-24.1-13.92C91.935,65.805,85.7,76.606,88.515,87.111l12.426,46.399l-42.852-24.604   c-9.447-5.428-21.472-2.168-26.878,7.275c-5.411,9.432-2.148,21.459,7.281,26.873l42.762,24.553l-46.392,12.43   c-10.507,2.812-16.74,13.611-13.926,24.119c2.355,8.793,10.307,14.598,19,14.598c1.693,0,3.403-0.224,5.109-0.678l84.632-22.682   l32.069,18.412l0.033,35.188l-32.486,18.768l-84.248-22.598c-10.433-2.738-21.291,3.43-24.109,13.924   c-2.814,10.504,3.419,21.306,13.926,24.103l46.222,12.397l-42.641,24.616c-9.413,5.441-12.643,17.472-7.199,26.886   c3.647,6.336,10.263,9.844,17.06,9.844c3.337,0,6.724-0.83,9.827-2.646l42.857-24.732l-12.473,46.577   c-2.815,10.522,3.42,21.29,13.926,24.119c1.701,0.461,3.41,0.679,5.104,0.679c8.689,0,16.641-5.814,18.996-14.613l22.676-84.605   l32.252-18.609l30.335,17.504v38.025l-61.684,61.685c-7.691,7.69-7.691,20.147,0,27.842c3.846,3.846,8.875,5.752,13.921,5.752   c5.029,0,10.076-1.906,13.922-5.752l33.841-33.842v49.225c0,10.892,8.817,19.689,19.688,19.689   c10.873,0,19.691-8.799,19.691-19.689v-49.471l34.089,34.088c3.845,3.846,8.874,5.752,13.921,5.752s10.076-1.906,13.921-5.752   c7.688-7.693,7.688-20.15,0-27.842l-61.931-61.931V300.76l30.595-17.658l32.243,18.609l22.676,84.605   c2.352,8.799,10.304,14.613,18.992,14.613c1.688,0,3.402-0.218,5.107-0.679c10.512-2.829,16.732-13.597,13.921-24.119   l-12.487-46.577l42.873,24.732c3.104,1.814,6.49,2.646,9.828,2.646c6.797,0,13.411-3.508,17.059-9.844   c5.443-9.414,2.215-21.443-7.199-26.886L382.15,295.59l46.221-12.398c10.507-2.797,16.737-13.6,13.922-24.102   C439.495,248.594,428.682,242.413,418.193,245.165z M262.087,248.995l-30.472,17.599l-30.45-17.6l-0.034-35.219l30.484-17.587   l30.472,17.613V248.995z" fill="#03a9f4"/>
</g>
</svg>