<?xml version="1.0" encoding="UTF-8"?>
<svg xmlns="http://www.w3.org/2000/svg" xmlns:xlink="http://www.w3.org/1999/xlink" width="16px" height="16px" viewBox="0 0 16 16" version="1.1">
<g id="surface1">
<path style=" stroke:none;fill-rule:nonzero;fill:rgb(24.705882%,31.764706%,70.980392%);fill-opacity:1;" d="M 0 2.222656 C 0 0.996094 0.996094 0 2.222656 0 C 3.449219 0 4.445312 0.996094 4.445312 2.222656 L 4.445312 3.109375 L 6.277344 3.109375 C 6.476562 2.34375 7.171875 1.777344 8 1.777344 C 8.828125 1.777344 9.523438 2.34375 9.722656 3.109375 L 11.554688 3.109375 L 11.554688 2.222656 C 11.554688 0.996094 12.550781 0 13.777344 0 C 15.003906 0 16 0.996094 16 2.222656 L 16 4.890625 C 16 6.117188 15.003906 7.109375 13.777344 7.109375 C 12.550781 7.109375 11.554688 6.117188 11.554688 4.890625 L 11.554688 4.445312 L 9.539062 4.445312 C 9.34375 4.785156 9.035156 5.054688 8.667969 5.203125 L 8.667969 10.796875 C 9.035156 10.945312 9.34375 11.214844 9.539062 11.554688 L 11.554688 11.554688 L 11.554688 11.109375 C 11.554688 9.882812 12.550781 8.890625 13.777344 8.890625 C 15.003906 8.890625 16 9.882812 16 11.109375 L 16 13.777344 C 16 15.003906 15.003906 16 13.777344 16 C 12.550781 16 11.554688 15.003906 11.554688 13.777344 L 11.554688 12.890625 L 9.722656 12.890625 C 9.523438 13.65625 8.828125 14.222656 8 14.222656 C 7.171875 14.222656 6.476562 13.65625 6.277344 12.890625 L 4.445312 12.890625 L 4.445312 13.777344 C 4.445312 15.003906 3.449219 16 2.222656 16 C 0.996094 16 0 15.003906 0 13.777344 L 0 11.109375 C 0 9.882812 0.996094 8.890625 2.222656 8.890625 C 3.449219 8.890625 4.445312 9.882812 4.445312 11.109375 L 4.445312 11.554688 L 6.460938 11.554688 C 6.65625 11.214844 6.964844 10.945312 7.332031 10.796875 L 7.332031 5.203125 C 6.964844 5.054688 6.65625 4.785156 6.460938 4.445312 L 4.445312 4.445312 L 4.445312 4.890625 C 4.445312 6.117188 3.449219 7.109375 2.222656 7.109375 C 0.996094 7.109375 0 6.117188 0 4.890625 Z M 0 2.222656 "/>
</g>
</svg>
