<?xml version="1.0" encoding="UTF-8"?>
<svg xmlns="http://www.w3.org/2000/svg" xmlns:xlink="http://www.w3.org/1999/xlink" width="16px" height="16px" viewBox="0 0 16 16" version="1.1">
<g id="surface1">
<path style=" stroke:none;fill-rule:nonzero;fill:rgb(15.686275%,85.098039%,6.666667%);fill-opacity:1;" d="M 12.890625 6.445312 C 12.890625 2.886719 10.003906 0 6.445312 0 C 2.886719 0 0 2.886719 0 6.445312 C 0 10.003906 2.886719 12.890625 6.445312 12.890625 C 7.984375 12.890625 9.398438 12.347656 10.503906 11.449219 L 14.863281 15.804688 L 14.9375 15.871094 C 15.199219 16.0625 15.566406 16.042969 15.804688 15.804688 C 16.066406 15.542969 16.066406 15.121094 15.804688 14.863281 L 11.449219 10.503906 C 12.347656 9.398438 12.890625 7.984375 12.890625 6.445312 Z M 7.332031 3.777344 C 7.332031 4.269531 6.933594 4.667969 6.445312 4.667969 C 5.953125 4.667969 5.554688 4.269531 5.554688 3.777344 C 5.554688 3.289062 5.953125 2.890625 6.445312 2.890625 C 6.933594 2.890625 7.332031 3.285156 7.332031 3.777344 Z M 6.445312 5.554688 C 6.8125 5.554688 7.109375 5.855469 7.109375 6.222656 L 7.109375 9.332031 C 7.109375 9.703125 6.8125 10 6.445312 10 C 6.078125 10 5.777344 9.703125 5.777344 9.332031 L 5.777344 6.222656 C 5.777344 5.855469 6.078125 5.554688 6.445312 5.554688 Z M 6.445312 5.554688 "/>
</g>
</svg>
