<?xml version="1.0" encoding="UTF-8"?>
<svg xmlns="http://www.w3.org/2000/svg" xmlns:xlink="http://www.w3.org/1999/xlink" width="16px" height="16px" viewBox="0 0 16 16" version="1.1">
<g id="surface1">
<path style=" stroke:none;fill-rule:evenodd;fill:rgb(10.588235%,33.333333%,76.078431%);fill-opacity:1;" d="M 1.832031 8 C 1.832031 4.59375 4.59375 1.832031 8 1.832031 C 11.386719 1.832031 14.136719 4.566406 14.167969 7.949219 C 14.167969 8.222656 14.394531 8.445312 14.671875 8.445312 C 14.945312 8.441406 15.167969 8.214844 15.167969 7.941406 C 15.132812 4.007812 11.9375 0.832031 8 0.832031 C 4.042969 0.832031 0.832031 4.042969 0.832031 8 C 0.832031 11.9375 4.007812 15.132812 7.941406 15.167969 C 8.214844 15.167969 8.441406 14.945312 8.445312 14.671875 C 8.445312 14.394531 8.222656 14.167969 7.949219 14.167969 C 4.566406 14.136719 1.832031 11.386719 1.832031 8 Z M 8 5.167969 C 6.433594 5.167969 5.167969 6.433594 5.167969 8 C 5.167969 9.1875 5.898438 10.207031 6.941406 10.628906 C 7.195312 10.730469 7.320312 11.023438 7.214844 11.277344 C 7.113281 11.535156 6.820312 11.660156 6.566406 11.554688 C 5.160156 10.988281 4.167969 9.609375 4.167969 8 C 4.167969 5.882812 5.882812 4.167969 8 4.167969 C 9.609375 4.167969 10.988281 5.160156 11.554688 6.566406 C 11.660156 6.820312 11.535156 7.113281 11.277344 7.214844 C 11.023438 7.320312 10.730469 7.195312 10.628906 6.941406 C 10.207031 5.898438 9.1875 5.167969 8 5.167969 Z M 9.78125 14.175781 L 8.039062 8.949219 C 7.851562 8.386719 8.386719 7.851562 8.949219 8.039062 L 14.175781 9.78125 C 14.832031 10 14.832031 10.925781 14.175781 11.144531 L 12.246094 11.789062 C 12.03125 11.859375 11.859375 12.03125 11.789062 12.246094 L 11.144531 14.175781 C 10.925781 14.832031 10 14.832031 9.78125 14.175781 Z M 9.78125 14.175781 "/>
</g>
</svg>
