<?xml version="1.0" encoding="UTF-8"?>
<svg xmlns="http://www.w3.org/2000/svg" xmlns:xlink="http://www.w3.org/1999/xlink" width="16px" height="16px" viewBox="0 0 16 16" version="1.1">
<g id="surface1">
<path style=" stroke:none;fill-rule:nonzero;fill:rgb(3.921569%,76.862745%,10.980392%);fill-opacity:1;" d="M 8 2.507812 C 8.457031 2.507812 8.910156 2.796875 9.257812 3.375 L 14.070312 11.398438 C 14.761719 12.550781 14.226562 13.492188 12.882812 13.492188 L 3.117188 13.492188 C 1.773438 13.492188 1.238281 12.546875 1.929688 11.398438 L 6.742188 3.375 C 7.089844 2.796875 7.542969 2.507812 8 2.507812 M 8 0.882812 C 6.945312 0.882812 5.980469 1.484375 5.347656 2.535156 L 0.535156 10.554688 C -0.105469 11.621094 -0.175781 12.757812 0.34375 13.675781 C 0.863281 14.589844 1.871094 15.117188 3.117188 15.117188 L 12.882812 15.117188 C 14.128906 15.117188 15.136719 14.59375 15.65625 13.679688 C 16.175781 12.761719 16.101562 11.625 15.464844 10.558594 L 10.652344 2.539062 C 10.019531 1.484375 9.054688 0.882812 8 0.882812 Z M 8 0.882812 "/>
<path style=" stroke:none;fill-rule:nonzero;fill:rgb(3.921569%,76.862745%,10.980392%);fill-opacity:1;" d="M 8 9.992188 C 8.585938 9.992188 9.058594 10.464844 9.058594 11.050781 C 9.058594 11.632812 8.585938 12.109375 8 12.109375 C 7.414062 12.109375 6.941406 11.632812 6.941406 11.050781 C 6.941406 10.460938 7.414062 9.992188 8 9.992188 Z M 8 9.992188 "/>
<path style=" stroke:none;fill-rule:nonzero;fill:rgb(3.921569%,76.862745%,10.980392%);fill-opacity:1;" d="M 9.222656 6.164062 C 9.222656 5.492188 8.675781 4.945312 8 4.945312 C 7.324219 4.945312 6.777344 5.488281 6.777344 6.164062 C 6.777344 6.328125 6.8125 6.480469 6.867188 6.621094 C 7.320312 7.742188 8 9.417969 8 9.417969 L 9.132812 6.621094 C 9.1875 6.480469 9.222656 6.324219 9.222656 6.164062 Z M 9.222656 6.164062 "/>
</g>
</svg>
