<svg xmlns="http://www.w3.org/2000/svg" xmlns:xlink="http://www.w3.org/1999/xlink" width="16px" height="16px" viewBox="0 0 16 15" version="1.1">
<g id="surface1">
<path style=" stroke:none;fill-rule:nonzero;fill:#673ab7;fill-opacity:1;" d="M 2.011719 10.65625 C 2.175781 10.535156 2.410156 10.5625 2.539062 10.71875 C 2.667969 10.875 2.636719 11.101562 2.472656 11.222656 L 0.765625 12.484375 L 0.753906 14.144531 L 2.808594 14.035156 L 3.945312 12.316406 C 4.054688 12.148438 4.289062 12.097656 4.464844 12.203125 C 4.640625 12.308594 4.691406 12.53125 4.582031 12.699219 L 3.347656 14.566406 C 3.285156 14.664062 3.175781 14.734375 3.042969 14.742188 L 0.394531 14.882812 C 0.386719 14.882812 0.382812 14.882812 0.375 14.882812 C 0.167969 14.882812 0 14.722656 0 14.523438 L 0.015625 12.332031 C 0.0078125 12.21875 0.0585938 12.101562 0.160156 12.023438 Z M 5.246094 6.679688 C 6.101562 4.238281 7.257812 2.507812 8.882812 1.414062 C 10.574219 0.285156 12.742188 -0.144531 15.585938 0.0507812 C 15.78125 0.0625 15.929688 0.21875 15.933594 0.402344 C 16.210938 3.335938 15.613281 5.414062 14.339844 6.992188 C 13.113281 8.503906 11.277344 9.53125 8.992188 10.390625 L 8.992188 13.253906 C 8.992188 13.394531 8.910156 13.515625 8.785156 13.574219 L 6.460938 14.941406 C 6.285156 15.046875 6.054688 14.996094 5.945312 14.824219 C 5.917969 14.78125 5.898438 14.734375 5.890625 14.683594 C 5.378906 10.9375 4.832031 10.757812 1.617188 9.699219 C 1.234375 9.570312 0.820312 9.433594 0.539062 9.339844 C 0.34375 9.273438 0.242188 9.070312 0.308594 8.882812 C 0.324219 8.84375 0.347656 8.808594 0.371094 8.777344 L 1.902344 6.695312 C 1.980469 6.589844 2.105469 6.539062 2.230469 6.542969 Z M 11.027344 3.195312 C 11.464844 3.195312 11.859375 3.363281 12.144531 3.636719 C 12.433594 3.910156 12.609375 4.289062 12.609375 4.703125 C 12.609375 5.121094 12.433594 5.5 12.144531 5.773438 C 11.859375 6.046875 11.464844 6.214844 11.027344 6.214844 C 10.589844 6.214844 10.191406 6.046875 9.90625 5.773438 C 9.621094 5.5 9.441406 5.121094 9.441406 4.703125 C 9.441406 4.289062 9.621094 3.910156 9.90625 3.636719 C 10.191406 3.363281 10.589844 3.195312 11.027344 3.195312 Z M 11.78125 3.984375 C 11.589844 3.800781 11.320312 3.6875 11.027344 3.6875 C 10.730469 3.6875 10.464844 3.800781 10.269531 3.984375 C 10.078125 4.167969 9.957031 4.421875 9.957031 4.703125 C 9.957031 4.984375 10.078125 5.238281 10.269531 5.425781 C 10.464844 5.609375 10.730469 5.722656 11.027344 5.722656 C 11.320312 5.722656 11.585938 5.609375 11.78125 5.425781 C 11.972656 5.242188 12.09375 4.988281 12.09375 4.703125 C 12.09375 4.421875 11.972656 4.167969 11.78125 3.984375 Z M 9.316406 2.003906 C 7.777344 3.035156 6.6875 4.726562 5.875 7.144531 C 5.832031 7.304688 5.675781 7.417969 5.492188 7.410156 L 2.398438 7.265625 L 1.253906 8.820312 C 1.496094 8.902344 1.683594 8.964844 1.863281 9.023438 C 5.289062 10.152344 6 10.386719 6.558594 14.042969 L 8.238281 13.054688 L 8.238281 10.148438 L 8.242188 10.148438 C 8.242188 10.003906 8.332031 9.867188 8.480469 9.8125 C 10.753906 8.980469 12.570312 8 13.742188 6.550781 C 14.863281 5.167969 15.402344 3.332031 15.210938 0.746094 C 12.707031 0.613281 10.792969 1.011719 9.316406 2.003906 Z M 9.316406 2.003906 "/>
</g>
</svg>