<?xml version="1.0" encoding="UTF-8"?>
<svg xmlns="http://www.w3.org/2000/svg" xmlns:xlink="http://www.w3.org/1999/xlink" width="16px" height="16px" viewBox="0 0 16 16" version="1.1">
<g id="surface1">
<path style=" stroke:none;fill-rule:nonzero;fill:rgb(1.176471%,2.745098%,95.686275%);fill-opacity:1;" d="M 0 0 L 0 2.910156 L 0.726562 2.910156 L 0.726562 13.089844 L 0 13.089844 L 0 16 L 2.910156 16 L 2.910156 15.273438 L 13.089844 15.273438 L 13.089844 16 L 16 16 L 16 13.089844 L 15.273438 13.089844 L 15.273438 2.910156 L 16 2.910156 L 16 0 L 13.089844 0 L 13.089844 0.726562 L 2.910156 0.726562 L 2.910156 0 Z M 2.910156 2.179688 L 13.089844 2.179688 L 13.089844 2.910156 L 13.820312 2.910156 L 13.820312 13.089844 L 13.089844 13.089844 L 13.089844 13.820312 L 2.910156 13.820312 L 2.910156 13.089844 L 2.179688 13.089844 L 2.179688 2.910156 L 2.910156 2.910156 Z M 3.636719 3.636719 L 3.636719 9.457031 L 6.546875 9.457031 L 6.546875 12.367188 L 12.367188 12.367188 L 12.367188 6.546875 L 9.457031 6.546875 L 9.457031 3.636719 Z M 5.089844 5.089844 L 8 5.089844 L 8 8 L 5.089844 8 Z M 9.453125 8 L 10.90625 8 L 10.90625 10.910156 L 8 10.910156 L 8 9.457031 L 9.453125 9.457031 Z M 9.453125 8 "/>
</g>
</svg>
