<?xml version="1.0" encoding="UTF-8"?>
<svg xmlns="http://www.w3.org/2000/svg" xmlns:xlink="http://www.w3.org/1999/xlink" width="16px" height="16px" viewBox="0 0 16 16" version="1.1">
<g id="surface1">
<path style=" stroke:none;fill-rule:nonzero;fill:rgb(27.058824%,19.215686%,0.784314%);fill-opacity:1;" d="M 4.023438 6.105469 L 1.433594 4.484375 C 1.183594 4.328125 0.839844 4.417969 0.71875 4.6875 C 0.316406 5.566406 0.078125 6.511719 0.015625 7.476562 C 0 7.761719 0.238281 8 0.523438 8 L 3.558594 8 C 3.804688 8 3.996094 7.804688 4.027344 7.558594 C 4.058594 7.265625 4.128906 6.984375 4.222656 6.714844 C 4.300781 6.484375 4.230469 6.234375 4.023438 6.105469 Z M 9.96875 0.25 C 9.339844 0.0898438 8.679688 0 8 0 C 7.320312 0 6.660156 0.0898438 6.03125 0.25 C 5.742188 0.324219 5.59375 0.644531 5.707031 0.917969 L 6.875 4.167969 C 6.949219 4.367188 7.136719 4.5 7.347656 4.5 L 8.652344 4.5 C 8.863281 4.5 9.050781 4.367188 9.125 4.167969 L 10.292969 0.917969 C 10.40625 0.644531 10.257812 0.324219 9.96875 0.25 Z M 3.5 9 L 0.5 9 C 0.222656 9 0 9.222656 0 9.5 L 0 11.5 C 0 11.777344 0.222656 12 0.5 12 L 3.5 12 C 3.777344 12 4 11.777344 4 11.5 L 4 9.5 C 4 9.222656 3.777344 9 3.5 9 Z M 3.5 13 L 0.5 13 C 0.222656 13 0 13.222656 0 13.5 L 0 15.5 C 0 15.777344 0.222656 16 0.5 16 L 3.5 16 C 3.777344 16 4 15.777344 4 15.5 L 4 13.5 C 4 13.222656 3.777344 13 3.5 13 Z M 5.914062 4.136719 L 4.78125 1.296875 C 4.671875 1.023438 4.339844 0.890625 4.082031 1.039062 C 3.226562 1.519531 2.46875 2.15625 1.84375 2.910156 C 1.652344 3.136719 1.722656 3.488281 1.972656 3.644531 L 4.566406 5.265625 C 4.769531 5.390625 5.023438 5.347656 5.195312 5.175781 C 5.355469 5.015625 5.53125 4.871094 5.71875 4.738281 C 5.914062 4.601562 6.003906 4.359375 5.914062 4.136719 Z M 12.441406 8 L 15.476562 8 C 15.761719 8 16 7.761719 15.984375 7.476562 C 15.921875 6.511719 15.683594 5.566406 15.28125 4.6875 C 15.160156 4.417969 14.816406 4.328125 14.566406 4.484375 L 11.976562 6.105469 C 11.769531 6.234375 11.699219 6.484375 11.777344 6.714844 C 11.875 6.984375 11.941406 7.265625 11.972656 7.558594 C 12.003906 7.804688 12.195312 8 12.441406 8 Z M 14.15625 2.910156 C 13.53125 2.15625 12.773438 1.519531 11.917969 1.039062 C 11.660156 0.890625 11.328125 1.023438 11.21875 1.296875 L 10.082031 4.136719 C 9.996094 4.359375 10.085938 4.601562 10.28125 4.738281 C 10.46875 4.867188 10.644531 5.015625 10.804688 5.175781 C 10.976562 5.347656 11.230469 5.390625 11.433594 5.265625 L 14.023438 3.644531 C 14.277344 3.488281 14.347656 3.136719 14.15625 2.910156 Z M 15.5 9 L 12.5 9 C 12.222656 9 12 9.222656 12 9.5 L 12 11.5 C 12 11.777344 12.222656 12 12.5 12 L 15.5 12 C 15.777344 12 16 11.777344 16 11.5 L 16 9.5 C 16 9.222656 15.777344 9 15.5 9 Z M 15.5 13 L 12.5 13 C 12.222656 13 12 13.222656 12 13.5 L 12 15.5 C 12 15.777344 12.222656 16 12.5 16 L 15.5 16 C 15.777344 16 16 15.777344 16 15.5 L 16 13.5 C 16 13.222656 15.777344 13 15.5 13 Z M 7.5 5.550781 L 7.5 14.75 C 7.5 14.886719 7.613281 15 7.75 15 L 8.25 15 C 8.386719 15 8.5 14.886719 8.5 14.75 L 8.5 5.550781 C 8.335938 5.523438 8.171875 5.5 8 5.5 C 7.828125 5.5 7.664062 5.523438 7.5 5.550781 Z M 5.5 6.847656 L 5.5 14.75 C 5.5 14.886719 5.613281 15 5.75 15 L 6.25 15 C 6.386719 15 6.5 14.886719 6.5 14.75 L 6.5 5.917969 C 6.101562 6.148438 5.753906 6.464844 5.5 6.847656 Z M 9.5 5.917969 L 9.5 14.75 C 9.5 14.886719 9.613281 15 9.75 15 L 10.25 15 C 10.386719 15 10.5 14.886719 10.5 14.75 L 10.5 6.847656 C 10.246094 6.464844 9.898438 6.148438 9.5 5.917969 Z M 9.5 5.917969 "/>
</g>
</svg>
