<?xml version="1.0" encoding="UTF-8"?>
<svg xmlns="http://www.w3.org/2000/svg" xmlns:xlink="http://www.w3.org/1999/xlink" width="16px" height="16px" viewBox="0 0 16 16" version="1.1">
<g id="surface1">
<path style=" stroke:none;fill-rule:evenodd;fill:rgb(0%,47.058824%,12.941176%);fill-opacity:1;" d="M 5.015625 14.320312 C 2.835938 13.292969 1.277344 11.171875 1.035156 8.667969 L 0.0351562 8.667969 C 0.375 12.773438 3.808594 16 8.003906 16 L 8.441406 15.980469 L 5.902344 13.441406 Z M 5.609375 9.972656 C 5.484375 9.972656 5.363281 9.953125 5.261719 9.921875 C 5.15625 9.878906 5.070312 9.832031 4.996094 9.761719 C 4.921875 9.691406 4.863281 9.613281 4.824219 9.511719 C 4.785156 9.421875 4.761719 9.3125 4.761719 9.199219 L 3.898438 9.199219 C 3.898438 9.441406 3.945312 9.652344 4.035156 9.832031 C 4.128906 10.011719 4.257812 10.167969 4.410156 10.292969 C 4.570312 10.414062 4.75 10.507812 4.957031 10.566406 C 5.15625 10.632812 5.371094 10.667969 5.597656 10.667969 C 5.84375 10.667969 6.078125 10.632812 6.285156 10.566406 C 6.496094 10.5 6.683594 10.398438 6.835938 10.273438 C 6.992188 10.148438 7.117188 9.984375 7.203125 9.792969 C 7.289062 9.601562 7.335938 9.386719 7.335938 9.148438 C 7.335938 9.019531 7.324219 8.894531 7.289062 8.773438 C 7.257812 8.652344 7.210938 8.539062 7.136719 8.433594 C 7.070312 8.324219 6.976562 8.234375 6.871094 8.144531 C 6.757812 8.058594 6.625 7.992188 6.464844 7.9375 C 6.597656 7.878906 6.710938 7.804688 6.808594 7.71875 C 6.910156 7.632812 6.992188 7.539062 7.058594 7.4375 C 7.125 7.339844 7.171875 7.238281 7.203125 7.132812 C 7.238281 7.027344 7.25 6.917969 7.25 6.8125 C 7.25 6.574219 7.210938 6.359375 7.128906 6.171875 C 7.050781 5.984375 6.9375 5.832031 6.789062 5.710938 C 6.65625 5.585938 6.476562 5.492188 6.277344 5.425781 C 6.070312 5.367188 5.84375 5.332031 5.597656 5.332031 C 5.355469 5.332031 5.136719 5.367188 4.929688 5.4375 C 4.730469 5.511719 4.550781 5.613281 4.402344 5.738281 C 4.261719 5.867188 4.148438 6.011719 4.0625 6.1875 C 3.984375 6.359375 3.945312 6.546875 3.945312 6.753906 L 4.808594 6.753906 C 4.808594 6.640625 4.832031 6.539062 4.871094 6.453125 C 4.910156 6.367188 4.964844 6.285156 5.035156 6.226562 C 5.109375 6.164062 5.191406 6.113281 5.289062 6.078125 C 5.390625 6.046875 5.492188 6.027344 5.609375 6.027344 C 5.878906 6.027344 6.078125 6.09375 6.203125 6.234375 C 6.332031 6.367188 6.398438 6.558594 6.398438 6.804688 C 6.398438 6.925781 6.378906 7.03125 6.34375 7.132812 C 6.308594 7.234375 6.25 7.3125 6.175781 7.378906 C 6.105469 7.445312 6.011719 7.5 5.902344 7.539062 C 5.796875 7.578125 5.664062 7.601562 5.515625 7.601562 L 5.003906 7.601562 L 5.003906 8.285156 L 5.515625 8.285156 C 5.664062 8.285156 5.796875 8.300781 5.917969 8.332031 C 6.035156 8.367188 6.136719 8.421875 6.214844 8.488281 C 6.296875 8.558594 6.363281 8.648438 6.410156 8.753906 C 6.457031 8.859375 6.476562 8.988281 6.476562 9.132812 C 6.476562 9.40625 6.398438 9.613281 6.242188 9.753906 C 6.089844 9.90625 5.875 9.972656 5.609375 9.972656 Z M 11.308594 6.027344 C 11.097656 5.808594 10.84375 5.632812 10.550781 5.511719 C 10.257812 5.394531 9.929688 5.332031 9.570312 5.332031 L 7.996094 5.332031 L 7.996094 10.667969 L 9.53125 10.667969 C 9.898438 10.667969 10.234375 10.605469 10.535156 10.488281 C 10.835938 10.367188 11.097656 10.199219 11.308594 9.980469 C 11.523438 9.761719 11.691406 9.492188 11.804688 9.1875 C 11.917969 8.875 11.976562 8.527344 11.976562 8.140625 L 11.976562 7.875 C 11.976562 7.488281 11.917969 7.140625 11.804688 6.828125 C 11.691406 6.511719 11.523438 6.246094 11.308594 6.027344 Z M 11.050781 8.132812 C 11.050781 8.414062 11.015625 8.660156 10.957031 8.886719 C 10.890625 9.105469 10.796875 9.300781 10.671875 9.453125 C 10.542969 9.605469 10.382812 9.726562 10.195312 9.808594 C 10.003906 9.886719 9.78125 9.925781 9.535156 9.925781 L 8.929688 9.925781 L 8.929688 6.078125 L 9.578125 6.078125 C 10.054688 6.078125 10.421875 6.234375 10.667969 6.539062 C 10.921875 6.847656 11.050781 7.289062 11.050781 7.867188 Z M 8.003906 0 L 7.5625 0.0195312 L 10.101562 2.558594 L 10.992188 1.671875 C 13.171875 2.707031 14.730469 4.820312 14.964844 7.328125 L 15.964844 7.328125 C 15.628906 3.226562 12.195312 0 8.003906 0 Z M 8.003906 0 "/>
</g>
</svg>
