<svg xmlns="http://www.w3.org/2000/svg" xmlns:xlink="http://www.w3.org/1999/xlink" width="16px" height="16px" viewBox="0 0 16 16" version="1.1">
<g id="surface1">
<path style=" stroke:none;fill-rule:evenodd;fill:#f44336;fill-opacity:1;" d="M 13.332031 6.667969 L 14.667969 6.667969 L 14.667969 9.332031 L 13.332031 9.332031 Z M 11.332031 4.667969 L 12.667969 4.667969 L 12.667969 11.332031 L 11.332031 11.332031 Z M 9.332031 5.332031 L 10.667969 5.332031 L 10.667969 10.667969 L 9.332031 10.667969 Z M 7.332031 3.332031 L 8.667969 3.332031 L 8.667969 12.667969 L 7.332031 12.667969 Z M 1.332031 6.667969 L 2.667969 6.667969 L 2.667969 9.332031 L 1.332031 9.332031 Z M 3.332031 4.667969 L 4.667969 4.667969 L 4.667969 11.332031 L 3.332031 11.332031 Z M 5.332031 1.332031 L 6.667969 1.332031 L 6.667969 14.667969 L 5.332031 14.667969 Z M 5.332031 1.332031 "/>
</g>
</svg>