<?xml version="1.0" encoding="UTF-8"?>
<svg xmlns="http://www.w3.org/2000/svg" xmlns:xlink="http://www.w3.org/1999/xlink" width="16px" height="16px" viewBox="0 0 16 16" version="1.1">
<g id="surface1">
<path style=" stroke:none;fill-rule:nonzero;fill:rgb(95.686275%,26.27451%,21.176471%);fill-opacity:1;" d="M 4.644531 10.75 C 4.644531 11.222656 5.027344 11.605469 5.5 11.605469 C 5.972656 11.605469 6.355469 11.222656 6.355469 10.75 C 6.355469 10.277344 5.972656 9.894531 5.5 9.894531 C 5.027344 9.894531 4.644531 10.277344 4.644531 10.75 Z M 15.65625 5.222656 L 10.777344 0.34375 C 10.554688 0.125 10.261719 0 9.945312 0 C 9.632812 0 9.335938 0.121094 9.117188 0.34375 L 0.34375 9.117188 C -0.117188 9.574219 -0.117188 10.320312 0.34375 10.777344 L 5.222656 15.65625 C 5.441406 15.875 5.738281 16 6.054688 16 C 6.367188 16 6.664062 15.878906 6.882812 15.65625 L 15.65625 6.882812 C 16.117188 6.425781 16.117188 5.679688 15.65625 5.222656 Z M 6.054688 14.570312 L 1.429688 9.945312 L 9.945312 1.425781 L 14.570312 6.054688 Z M 1.585938 5.53125 C 1.640625 5.585938 1.726562 5.585938 1.785156 5.53125 L 5.53125 1.785156 C 5.585938 1.726562 5.585938 1.640625 5.53125 1.585938 L 4.84375 0.898438 C 4.789062 0.84375 4.699219 0.84375 4.644531 0.898438 L 0.898438 4.640625 C 0.839844 4.695312 0.839844 4.785156 0.898438 4.839844 Z M 14.417969 10.46875 C 14.363281 10.414062 14.273438 10.414062 14.21875 10.46875 L 10.46875 14.214844 C 10.414062 14.273438 10.414062 14.359375 10.46875 14.414062 L 11.152344 15.101562 C 11.210938 15.15625 11.296875 15.15625 11.351562 15.101562 L 15.101562 11.355469 C 15.15625 11.300781 15.15625 11.210938 15.101562 11.15625 Z M 14.417969 10.46875 "/>
</g>
</svg>
