<?xml version="1.0" encoding="UTF-8"?>
<svg xmlns="http://www.w3.org/2000/svg" xmlns:xlink="http://www.w3.org/1999/xlink" width="16px" height="16px" viewBox="0 0 16 16" version="1.1">
<g id="surface1">
<path style=" stroke:none;fill-rule:nonzero;fill:rgb(95.686275%,26.27451%,21.176471%);fill-opacity:1;" d="M 15.273438 5.164062 C 15.054688 5.089844 14.765625 4.945312 14.546875 4.871094 C 13.382812 2.398438 10.910156 0.726562 8 0.726562 C 5.089844 0.726562 2.617188 2.398438 1.453125 4.871094 C 1.238281 4.945312 0.945312 5.089844 0.800781 5.164062 C 0.289062 5.453125 0 5.964844 0 6.472656 L 0 9.527344 C 0 10.035156 0.289062 10.546875 0.726562 10.835938 C 0.945312 10.910156 1.234375 11.054688 1.453125 11.128906 C 2.617188 13.601562 5.089844 15.273438 8 15.273438 C 10.910156 15.273438 13.382812 13.601562 14.546875 11.128906 C 14.761719 11.054688 14.980469 10.910156 15.199219 10.765625 C 15.636719 10.472656 16 10.035156 16 9.453125 L 16 6.472656 C 16 5.964844 15.710938 5.453125 15.273438 5.164062 M 14.546875 6.472656 L 14.546875 9.527344 C 12.945312 10.398438 10.546875 10.910156 8 10.910156 C 5.453125 10.910156 3.054688 10.398438 1.453125 9.527344 L 1.453125 6.472656 C 3.054688 5.601562 5.453125 5.089844 8 5.089844 C 10.546875 5.089844 12.945312 5.601562 14.546875 6.472656 M 8 2.183594 C 9.746094 2.183594 11.273438 2.910156 12.363281 4.144531 C 11.054688 3.78125 9.527344 3.636719 8 3.636719 C 6.472656 3.636719 4.945312 3.78125 3.710938 4.144531 C 4.726562 2.910156 6.253906 2.183594 8 2.183594 M 8 13.816406 C 6.253906 13.816406 4.726562 13.089844 3.710938 11.855469 C 4.945312 12.21875 6.472656 12.363281 8 12.363281 C 9.527344 12.363281 11.054688 12.21875 12.363281 11.855469 C 11.273438 13.089844 9.746094 13.816406 8 13.816406 Z M 8 13.816406 "/>
</g>
</svg>
