<?xml version="1.0" encoding="UTF-8"?>
<svg xmlns="http://www.w3.org/2000/svg" xmlns:xlink="http://www.w3.org/1999/xlink" width="16px" height="16px" viewBox="0 0 16 16" version="1.1">
<g id="surface1">
<path style=" stroke:none;fill-rule:nonzero;fill:rgb(9.411765%,88.627451%,9.411765%);fill-opacity:1;" d="M 1.601562 12.800781 L 8.800781 12.800781 L 7.199219 14.398438 L 1.601562 14.398438 C 1.199219 14.398438 0.777344 14.230469 0.472656 13.929688 C 0.167969 13.625 0 13.199219 0 12.800781 L 0 4.800781 L 1.601562 4.800781 L 1.601562 12.800781 M 12.503906 2.273438 C 12.214844 1.863281 11.734375 1.601562 11.199219 1.601562 L 4.800781 1.601562 C 3.921875 1.601562 3.199219 2.320312 3.199219 3.199219 L 3.199219 9.601562 C 3.199219 10.480469 3.921875 11.199219 4.800781 11.199219 L 11.199219 11.199219 C 11.734375 11.199219 12.214844 10.929688 12.503906 10.519531 L 16 6.398438 Z M 12.503906 2.273438 "/>
</g>
</svg>
