<?xml version="1.0" encoding="UTF-8"?>
<svg xmlns="http://www.w3.org/2000/svg" xmlns:xlink="http://www.w3.org/1999/xlink" width="16px" height="16px" viewBox="0 0 16 16" version="1.1">
<g id="surface1">
<path style=" stroke:none;fill-rule:nonzero;fill:rgb(10.588235%,70.980392%,32.54902%);fill-opacity:1;" d="M 11.429688 12.191406 C 11.886719 12.191406 12.191406 12.496094 12.191406 12.953125 C 12.191406 13.410156 11.886719 13.714844 11.429688 13.714844 C 10.972656 13.714844 10.667969 13.410156 10.667969 12.953125 C 10.667969 12.496094 10.972656 12.191406 11.429688 12.191406 M 11.429688 9.90625 C 9.371094 9.90625 7.542969 11.199219 6.855469 12.953125 C 7.542969 14.703125 9.371094 16 11.429688 16 C 13.484375 16 15.3125 14.703125 16 12.953125 C 15.3125 11.199219 13.484375 9.90625 11.429688 9.90625 M 11.429688 14.855469 C 10.363281 14.855469 9.523438 14.019531 9.523438 12.953125 C 9.523438 11.886719 10.363281 11.046875 11.429688 11.046875 C 12.496094 11.046875 13.332031 11.886719 13.332031 12.953125 C 13.332031 14.019531 12.496094 14.855469 11.429688 14.855469 M 5.410156 13.484375 L 5.179688 12.953125 L 1.523438 12.953125 L 1.523438 4.570312 L 13.714844 4.570312 L 13.714844 8.839844 C 14.246094 9.066406 14.78125 9.296875 15.238281 9.675781 L 15.238281 4.570312 C 15.238281 4.191406 15.085938 3.808594 14.78125 3.503906 C 14.476562 3.199219 14.171875 3.046875 13.714844 3.046875 L 10.667969 3.046875 L 10.667969 1.523438 C 10.667969 1.066406 10.515625 0.761719 10.210938 0.457031 C 9.90625 0.152344 9.601562 0 9.144531 0 L 6.09375 0 C 5.636719 0 5.332031 0.152344 5.027344 0.457031 C 4.722656 0.761719 4.570312 1.066406 4.570312 1.523438 L 4.570312 3.046875 L 1.523438 3.046875 C 1.066406 3.046875 0.761719 3.199219 0.457031 3.503906 C 0.152344 3.808594 0 4.191406 0 4.570312 L 0 12.953125 C 0 13.332031 0.152344 13.714844 0.457031 14.019531 C 0.761719 14.324219 1.066406 14.476562 1.523438 14.476562 L 5.941406 14.476562 C 5.714844 14.171875 5.5625 13.867188 5.410156 13.484375 M 6.09375 1.523438 L 9.144531 1.523438 L 9.144531 3.046875 L 6.09375 3.046875 Z M 6.09375 1.523438 "/>
</g>
</svg>
