<?xml version="1.0" encoding="UTF-8"?>
<svg xmlns="http://www.w3.org/2000/svg" xmlns:xlink="http://www.w3.org/1999/xlink" width="16px" height="16px" viewBox="0 0 16 16" version="1.1">
<g id="surface1">
<path style=" stroke:none;fill-rule:nonzero;fill:rgb(11.764706%,90.980392%,15.686275%);fill-opacity:1;" d="M 15.855469 7.320312 L 13.675781 7.320312 C 13.367188 4.707031 11.292969 2.632812 8.679688 2.324219 L 8.679688 0.144531 C 8.679688 0.0664062 8.613281 0 8.535156 0 L 7.460938 0 C 7.382812 0 7.320312 0.0664062 7.320312 0.144531 L 7.320312 2.324219 C 4.703125 2.632812 2.632812 4.707031 2.320312 7.320312 L 0.144531 7.320312 C 0.0664062 7.320312 0 7.386719 0 7.464844 L 0 8.539062 C 0 8.617188 0.0664062 8.679688 0.144531 8.679688 L 2.324219 8.679688 C 2.632812 11.296875 4.707031 13.367188 7.320312 13.679688 L 7.320312 15.859375 C 7.320312 15.9375 7.386719 16.003906 7.464844 16.003906 L 8.539062 16.003906 C 8.617188 16.003906 8.679688 15.9375 8.679688 15.859375 L 8.679688 13.679688 C 11.296875 13.367188 13.367188 11.296875 13.679688 8.679688 L 15.859375 8.679688 C 15.9375 8.679688 16.003906 8.617188 16.003906 8.539062 L 16.003906 7.464844 C 16 7.382812 15.933594 7.320312 15.855469 7.320312 Z M 8 12.355469 C 5.59375 12.355469 3.644531 10.40625 3.644531 8 C 3.644531 5.59375 5.59375 3.644531 8 3.644531 C 10.40625 3.644531 12.355469 5.59375 12.355469 8 C 12.355469 10.40625 10.40625 12.355469 8 12.355469 Z M 8 12.355469 "/>
<path style=" stroke:none;fill-rule:nonzero;fill:rgb(11.764706%,90.980392%,15.686275%);fill-opacity:1;" d="M 8 5.855469 C 7.429688 5.855469 6.890625 6.078125 6.484375 6.484375 C 6.078125 6.890625 5.855469 7.425781 5.855469 8 C 5.855469 8.574219 6.078125 9.109375 6.484375 9.515625 C 6.890625 9.917969 7.429688 10.144531 8 10.144531 C 8.570312 10.144531 9.109375 9.921875 9.515625 9.515625 C 9.917969 9.109375 10.144531 8.570312 10.144531 8 C 10.144531 7.429688 9.921875 6.890625 9.515625 6.484375 C 9.109375 6.078125 8.570312 5.855469 8 5.855469 Z M 8 5.855469 "/>
</g>
</svg>
