<?xml version="1.0" encoding="UTF-8"?>
<svg xmlns="http://www.w3.org/2000/svg" xmlns:xlink="http://www.w3.org/1999/xlink" width="16px" height="16px" viewBox="0 0 16 16" version="1.1">
<g id="surface1">
<path style=" stroke:none;fill-rule:nonzero;fill:rgb(95.686275%,26.27451%,21.176471%);fill-opacity:1;" d="M 5.199219 4 C 5.863281 4 6.398438 3.460938 6.398438 2.796875 C 6.398438 2.136719 5.863281 1.597656 5.199219 1.597656 C 4.535156 1.597656 4 2.136719 4 2.796875 C 4 3.460938 4.535156 4 5.199219 4 Z M 3.09375 6.613281 C 3.117188 6.601562 3.140625 6.589844 3.164062 6.582031 L 2.742188 8.167969 C 2.601562 8.695312 2.738281 9.257812 3.109375 9.660156 L 4.878906 11.589844 L 5.425781 13.792969 C 5.535156 14.21875 5.96875 14.480469 6.398438 14.375 C 6.824219 14.265625 7.085938 13.832031 6.980469 13.40625 L 6.40625 11.101562 C 6.355469 10.90625 6.257812 10.730469 6.125 10.582031 L 4.886719 9.230469 L 5.371094 7.59375 L 5.609375 8.167969 C 5.71875 8.433594 5.921875 8.652344 6.179688 8.78125 L 6.847656 9.113281 C 7.242188 9.3125 7.722656 9.152344 7.917969 8.757812 C 8.117188 8.363281 7.957031 7.882812 7.5625 7.683594 L 7.023438 7.417969 L 6.640625 6.496094 C 6.210938 5.46875 5.207031 4.800781 4.09375 4.800781 C 3.523438 4.800781 2.960938 4.917969 2.4375 5.148438 L 2.238281 5.238281 C 1.417969 5.601562 0.785156 6.296875 0.503906 7.148438 L 0.4375 7.34375 C 0.300781 7.765625 0.527344 8.214844 0.945312 8.355469 C 1.363281 8.496094 1.816406 8.269531 1.957031 7.851562 L 2.023438 7.65625 C 2.164062 7.230469 2.480469 6.882812 2.890625 6.703125 L 3.089844 6.613281 Z M 2.34375 9.988281 L 1.71875 11.550781 L 0.234375 13.035156 C -0.078125 13.347656 -0.078125 13.855469 0.234375 14.167969 C 0.546875 14.480469 1.054688 14.480469 1.367188 14.167969 L 2.90625 12.625 C 3.023438 12.507812 3.113281 12.371094 3.171875 12.222656 L 3.535156 11.316406 L 2.515625 10.207031 C 2.453125 10.140625 2.398438 10.066406 2.34375 9.992188 Z M 13.765625 5.433594 C 13.453125 5.121094 12.945312 5.121094 12.632812 5.433594 C 12.320312 5.746094 12.320312 6.253906 12.632812 6.566406 L 13.269531 7.199219 L 9.601562 7.199219 C 9.15625 7.199219 8.800781 7.554688 8.800781 8 C 8.800781 8.441406 9.15625 8.796875 9.601562 8.796875 L 13.269531 8.796875 L 12.632812 9.433594 C 12.320312 9.746094 12.320312 10.253906 12.632812 10.566406 C 12.945312 10.878906 13.453125 10.878906 13.765625 10.566406 L 15.765625 8.566406 C 16.078125 8.253906 16.078125 7.746094 15.765625 7.433594 Z M 9.800781 1.597656 C 9.46875 1.597656 9.199219 1.867188 9.199219 2.199219 L 9.199219 3.398438 C 9.199219 3.730469 9.46875 4 9.800781 4 C 10.132812 4 10.398438 3.730469 10.398438 3.398438 L 10.398438 2.199219 C 10.398438 1.867188 10.132812 1.597656 9.800781 1.597656 Z M 10.398438 5.398438 C 10.398438 5.066406 10.132812 4.796875 9.800781 4.796875 C 9.46875 4.796875 9.199219 5.066406 9.199219 5.398438 L 9.199219 5.796875 C 9.199219 6.132812 9.46875 6.398438 9.800781 6.398438 C 10.132812 6.398438 10.398438 6.132812 10.398438 5.796875 Z M 9.800781 9.597656 C 9.46875 9.597656 9.199219 9.867188 9.199219 10.199219 L 9.199219 10.597656 C 9.199219 10.929688 9.46875 11.199219 9.800781 11.199219 C 10.132812 11.199219 10.398438 10.929688 10.398438 10.597656 L 10.398438 10.199219 C 10.398438 9.867188 10.132812 9.597656 9.800781 9.597656 Z M 10.398438 12.597656 C 10.398438 12.265625 10.132812 12 9.800781 12 C 9.46875 12 9.199219 12.265625 9.199219 12.597656 L 9.199219 13.800781 C 9.199219 14.132812 9.46875 14.398438 9.800781 14.398438 C 10.132812 14.398438 10.398438 14.132812 10.398438 13.800781 Z M 10.398438 12.597656 "/>
</g>
</svg>
