<?xml version="1.0" encoding="UTF-8"?>
<svg xmlns="http://www.w3.org/2000/svg" xmlns:xlink="http://www.w3.org/1999/xlink" width="16px" height="16px" viewBox="0 0 16 15" version="1.1">
<g id="surface1">
<path style=" stroke:none;fill-rule:nonzero;fill:rgb(23.137255%,27.45098%,32.156863%);fill-opacity:1;" d="M 14.765625 11.242188 L 1.3125 11.242188 C 0.859375 11.242188 0.765625 11.582031 0.765625 12.003906 L 0.765625 12.0625 C 0.765625 12.484375 0.859375 12.824219 1.3125 12.824219 L 14.765625 12.824219 C 15.222656 12.824219 15.234375 12.484375 15.234375 12.0625 L 15.234375 12.003906 C 15.234375 11.585938 15.222656 11.242188 14.765625 11.242188 Z M 14.765625 11.242188 "/>
<path style=" stroke:none;fill-rule:nonzero;fill:rgb(23.137255%,27.45098%,32.156863%);fill-opacity:1;" d="M 11.0625 10.835938 C 10.882812 10.425781 10.78125 9.980469 10.765625 9.515625 C 10.722656 9.507812 10.683594 9.503906 10.644531 9.5 C 9.253906 9.316406 7.347656 9.070312 5.714844 7.613281 C 5.011719 6.984375 4.738281 6.085938 4.542969 5.203125 C 4.519531 5.09375 4.597656 4.984375 4.710938 4.960938 C 4.828125 4.9375 4.945312 5.007812 4.96875 5.117188 C 5.148438 5.933594 5.402344 6.761719 6.011719 7.3125 C 7.542969 8.679688 9.371094 8.917969 10.703125 9.089844 C 10.726562 9.09375 10.75 9.097656 10.769531 9.097656 C 10.792969 8.742188 10.867188 8.382812 10.984375 8.023438 C 11.050781 7.828125 11.128906 7.636719 11.21875 7.457031 C 10.871094 7.410156 10.511719 7.367188 10.144531 7.308594 C 10.144531 7.3125 10.144531 7.316406 10.144531 7.324219 L 9.917969 8.164062 C 9.894531 8.257812 9.804688 8.316406 9.707031 8.316406 C 9.6875 8.316406 9.671875 8.3125 9.65625 8.3125 C 9.535156 8.28125 9.46875 8.171875 9.496094 8.0625 L 9.71875 7.230469 C 9.46875 7.183594 9.21875 7.121094 8.972656 7.042969 C 8.96875 7.046875 8.964844 7.054688 8.960938 7.0625 L 8.609375 7.753906 C 8.570312 7.828125 8.492188 7.871094 8.414062 7.871094 C 8.382812 7.871094 8.347656 7.867188 8.320312 7.851562 C 8.210938 7.800781 8.164062 7.679688 8.21875 7.578125 L 8.5625 6.902344 C 8.308594 6.800781 8.054688 6.679688 7.8125 6.527344 L 7.375 7.078125 C 7.332031 7.132812 7.265625 7.160156 7.203125 7.160156 C 7.15625 7.160156 7.113281 7.148438 7.070312 7.121094 C 6.976562 7.054688 6.953125 6.925781 7.027344 6.832031 L 7.460938 6.285156 L 7.464844 6.28125 C 7.390625 6.222656 7.3125 6.160156 7.242188 6.09375 C 7.195312 6.050781 7.152344 6 7.113281 5.933594 L 6.492188 6.394531 C 6.449219 6.425781 6.402344 6.4375 6.355469 6.4375 C 6.292969 6.4375 6.230469 6.414062 6.1875 6.359375 C 6.113281 6.273438 6.128906 6.144531 6.222656 6.074219 L 6.878906 5.589844 C 6.898438 5.578125 6.917969 5.566406 6.933594 5.558594 C 6.871094 5.390625 6.816406 5.199219 6.769531 5 L 5.8125 5.226562 C 5.796875 5.230469 5.78125 5.234375 5.761719 5.234375 C 5.664062 5.234375 5.574219 5.171875 5.550781 5.078125 C 5.523438 4.964844 5.589844 4.859375 5.707031 4.828125 L 6.671875 4.605469 C 6.675781 4.605469 6.675781 4.605469 6.679688 4.601562 C 6.652344 4.46875 6.628906 4.335938 6.605469 4.210938 L 1.664062 4.210938 L 1.664062 4.652344 C 1.664062 5.53125 1.558594 6.40625 1.347656 7.261719 C 1.179688 7.941406 1.003906 9.078125 0.980469 10.882812 C 1.085938 10.847656 1.191406 10.835938 1.3125 10.835938 Z M 3.359375 8.160156 C 3.90625 8.160156 4.351562 8.578125 4.351562 9.097656 C 4.351562 9.613281 3.90625 10.03125 3.359375 10.03125 C 2.808594 10.03125 2.363281 9.613281 2.363281 9.097656 C 2.363281 8.578125 2.808594 8.160156 3.359375 8.160156 Z M 3.359375 8.160156 "/>
<path style=" stroke:none;fill-rule:nonzero;fill:rgb(95.686275%,38.431373%,38.431373%);fill-opacity:1;" d="M 11.535156 10.835938 L 14.761719 10.835938 C 14.894531 10.835938 15.003906 10.851562 15.09375 10.882812 C 15.28125 10.144531 15.515625 8.472656 14.023438 7.9375 C 13.5 7.746094 12.648438 7.683594 11.667969 7.527344 C 11.5625 7.722656 11.472656 7.929688 11.398438 8.152344 C 11.078125 9.109375 11.15625 10.082031 11.535156 10.835938 Z M 11.535156 10.835938 "/>
<path style=" stroke:none;fill-rule:nonzero;fill:rgb(95.686275%,38.431373%,38.431373%);fill-opacity:1;" d="M 7.007812 2.160156 L 1.117188 2.160156 L 1.117188 3.796875 L 7.007812 3.796875 Z M 7.007812 2.160156 "/>
</g>
</svg>
