<?xml version="1.0" encoding="UTF-8"?>
<svg xmlns="http://www.w3.org/2000/svg" xmlns:xlink="http://www.w3.org/1999/xlink" width="16px" height="16px" viewBox="0 0 16 16" version="1.1">
<g id="surface1">
<path style=" stroke:none;fill-rule:nonzero;fill:rgb(95.686275%,26.27451%,21.176471%);fill-opacity:1;" d="M 5.871094 8 C 5.871094 9.132812 6.789062 10.054688 7.929688 10.054688 C 9.066406 10.054688 9.984375 9.136719 9.984375 8 C 9.984375 6.867188 9.066406 5.945312 7.929688 5.945312 C 6.789062 5.945312 5.871094 6.867188 5.871094 8 Z M 15.894531 7.527344 C 14.152344 3.863281 11.523438 2.019531 8 2.019531 C 4.472656 2.019531 1.847656 3.863281 0.105469 7.527344 C -0.0351562 7.828125 -0.0351562 8.175781 0.105469 8.472656 C 1.847656 12.136719 4.476562 13.980469 8 13.980469 C 11.527344 13.980469 14.152344 12.136719 15.894531 8.472656 C 16.035156 8.175781 16.035156 7.828125 15.894531 7.527344 Z M 7.929688 11.226562 C 6.144531 11.226562 4.699219 9.78125 4.699219 8 C 4.699219 6.21875 6.148438 4.773438 7.929688 4.773438 C 9.710938 4.773438 11.15625 6.214844 11.15625 8 C 11.15625 9.785156 9.710938 11.226562 7.929688 11.226562 Z M 7.929688 11.226562 "/>
</g>
</svg>
