<?xml version="1.0" encoding="UTF-8"?>
<svg xmlns="http://www.w3.org/2000/svg" xmlns:xlink="http://www.w3.org/1999/xlink" width="16px" height="16px" viewBox="0 0 16 16" version="1.1">
<g id="surface1">
<path style=" stroke:none;fill-rule:nonzero;fill:rgb(95.686275%,26.27451%,21.176471%);fill-opacity:1;" d="M 13.765625 2.234375 C 13.695312 2.164062 13.597656 2.125 13.5 2.125 L 9.511719 2.136719 C 9.398438 2.136719 9.292969 2.1875 9.222656 2.273438 L 4.734375 7.707031 L 4.117188 7.089844 C 3.777344 6.746094 3.222656 6.746094 2.882812 7.089844 L 2.089844 7.882812 C 1.746094 8.222656 1.746094 8.777344 2.089844 9.117188 L 3.394531 10.425781 C 3.441406 10.472656 3.441406 10.550781 3.394531 10.601562 L 1.523438 12.472656 C 1.179688 12.8125 1.179688 13.367188 1.523438 13.710938 L 2.289062 14.476562 C 2.632812 14.820312 3.1875 14.820312 3.527344 14.476562 L 5.398438 12.605469 C 5.421875 12.582031 5.453125 12.570312 5.488281 12.570312 C 5.519531 12.570312 5.550781 12.582031 5.574219 12.605469 L 6.882812 13.910156 C 7.222656 14.253906 7.777344 14.253906 8.117188 13.910156 L 8.910156 13.117188 C 9.253906 12.777344 9.253906 12.222656 8.910156 11.882812 L 8.292969 11.265625 L 13.726562 6.777344 C 13.8125 6.707031 13.863281 6.601562 13.863281 6.488281 L 13.875 2.5 C 13.875 2.402344 13.835938 2.304688 13.765625 2.234375 Z M 8.382812 12.410156 C 8.40625 12.433594 8.417969 12.46875 8.417969 12.5 C 8.417969 12.53125 8.40625 12.566406 8.382812 12.589844 L 7.589844 13.382812 C 7.539062 13.429688 7.460938 13.429688 7.410156 13.382812 L 6.105469 12.074219 C 5.765625 11.734375 5.210938 11.734375 4.867188 12.074219 L 2.996094 13.945312 C 2.949219 13.996094 2.871094 13.996094 2.820312 13.945312 L 2.054688 13.179688 C 2.003906 13.128906 2.003906 13.050781 2.054688 13.003906 L 3.925781 11.132812 C 4.265625 10.789062 4.265625 10.234375 3.925781 9.894531 L 2.617188 8.589844 C 2.59375 8.566406 2.582031 8.53125 2.582031 8.5 C 2.582031 8.46875 2.59375 8.433594 2.617188 8.410156 L 3.410156 7.617188 C 3.460938 7.570312 3.539062 7.570312 3.589844 7.617188 L 4.496094 8.523438 L 4.496094 8.527344 Z M 13.113281 6.308594 L 7.761719 10.730469 L 6.78125 9.75 L 10.265625 6.265625 C 10.410156 6.117188 10.410156 5.882812 10.265625 5.734375 C 10.117188 5.589844 9.882812 5.589844 9.734375 5.734375 L 6.25 9.21875 L 5.269531 8.238281 L 9.691406 2.886719 L 13.125 2.875 Z M 13.113281 6.308594 "/>
</g>
</svg>
