<?xml version="1.0" encoding="UTF-8"?>
<svg xmlns="http://www.w3.org/2000/svg" xmlns:xlink="http://www.w3.org/1999/xlink" width="16px" height="16px" viewBox="0 0 16 16" version="1.1">
<g id="surface1">
<path style=" stroke:none;fill-rule:nonzero;fill:rgb(69.019608%,15.294118%,20.784314%);fill-opacity:1;" d="M 8 1.332031 C 4.328125 1.332031 1.332031 4.328125 1.332031 8 C 1.332031 11.671875 4.328125 14.667969 8 14.667969 C 11.671875 14.667969 14.667969 11.671875 14.667969 8 C 14.667969 4.328125 11.671875 1.332031 8 1.332031 Z M 9.859375 8.351562 L 7.507812 10.707031 C 7.40625 10.808594 7.28125 10.851562 7.152344 10.851562 C 7.027344 10.851562 6.898438 10.808594 6.800781 10.707031 C 6.605469 10.511719 6.605469 10.191406 6.800781 10 L 8.800781 8 L 6.800781 6 C 6.605469 5.808594 6.605469 5.488281 6.800781 5.292969 C 6.992188 5.101562 7.3125 5.101562 7.507812 5.292969 L 9.859375 7.648438 C 10.058594 7.839844 10.058594 8.160156 9.859375 8.351562 Z M 9.859375 8.351562 "/>
</g>
</svg>
