<?xml version="1.0" encoding="UTF-8"?>
<svg xmlns="http://www.w3.org/2000/svg" xmlns:xlink="http://www.w3.org/1999/xlink" width="16px" height="16px" viewBox="0 0 16 16" version="1.1">
<g id="surface1">
<path style=" stroke:none;fill-rule:nonzero;fill:rgb(14.117647%,78.823529%,20.392157%);fill-opacity:1;" d="M 16 11.632812 C 16 14.039062 14.042969 15.996094 11.636719 15.996094 L 11.636719 14.90625 C 13.457031 14.90625 14.910156 13.453125 14.910156 11.632812 L 16 11.632812 M 0.00390625 4.363281 C 0.00390625 1.957031 1.960938 0 4.367188 0 L 4.367188 1.089844 C 2.546875 1.089844 1.09375 2.542969 1.09375 4.363281 L 0.00390625 4.363281 M 5.09375 2.414062 L 1.757812 5.757812 C -0.585938 8.101562 -0.585938 11.902344 1.757812 14.242188 C 4.097656 16.585938 7.898438 16.585938 10.242188 14.242188 L 15.382812 9.089844 C 15.738281 8.746094 15.738281 8.171875 15.382812 7.816406 C 15.027344 7.460938 14.453125 7.460938 14.09375 7.816406 L 10.882812 11.03125 L 10.363281 10.515625 L 15.121094 5.757812 C 15.476562 5.402344 15.476562 4.828125 15.121094 4.472656 C 14.765625 4.117188 14.183594 4.117188 13.820312 4.472656 L 9.59375 8.726562 L 9.09375 8.195312 L 14.085938 3.183594 C 14.445312 2.828125 14.445312 2.253906 14.085938 1.898438 C 13.730469 1.542969 13.15625 1.542969 12.800781 1.898438 L 7.789062 6.90625 L 7.273438 6.398438 L 11.273438 2.414062 C 11.636719 2.058594 11.636719 1.484375 11.273438 1.128906 C 10.910156 0.769531 10.34375 0.769531 9.988281 1.128906 L 4.445312 6.667969 C 5.332031 7.808594 5.253906 9.453125 4.207031 10.507812 L 3.691406 9.992188 C 4.539062 9.140625 4.539062 7.757812 3.691406 6.90625 L 3.4375 6.652344 L 6.394531 3.695312 C 6.75 3.335938 6.75 2.761719 6.394531 2.40625 C 6.03125 2.058594 5.457031 2.058594 5.09375 2.414062 Z M 5.09375 2.414062 "/>
</g>
</svg>
