<?xml version="1.0" encoding="UTF-8"?>
<svg xmlns="http://www.w3.org/2000/svg" xmlns:xlink="http://www.w3.org/1999/xlink" width="16px" height="16px" viewBox="0 0 16 16" version="1.1">
<g id="surface1">
<path style=" stroke:none;fill-rule:nonzero;fill:rgb(40.392157%,22.745098%,71.764706%);fill-opacity:1;" d="M 13.878906 1.203125 C 14.0625 0.90625 14.445312 0.800781 14.757812 0.96875 C 15.070312 1.132812 15.195312 1.507812 15.054688 1.828125 L 11.246094 10.296875 C 11.304688 10.359375 11.363281 10.425781 11.417969 10.492188 L 14.121094 8.972656 C 14.410156 8.808594 14.773438 8.886719 14.976562 9.152344 C 15.179688 9.414062 15.152344 9.789062 14.917969 10.027344 L 12.5 12.441406 L 10.515625 12.441406 C 10.148438 11.40625 9.160156 10.664062 8 10.664062 C 6.839844 10.664062 5.851562 11.40625 5.484375 12.441406 L 3.273438 12.441406 L 1.175781 10.992188 C 0.90625 10.804688 0.8125 10.449219 0.957031 10.152344 C 1.101562 9.851562 1.4375 9.710938 1.753906 9.804688 L 4.453125 10.652344 C 4.535156 10.542969 4.621094 10.4375 4.714844 10.335938 L 2.984375 7.453125 C 2.8125 7.171875 2.875 6.8125 3.125 6.601562 C 3.375 6.390625 3.742188 6.390625 3.988281 6.601562 L 6.832031 9.046875 C 6.875 9.035156 6.917969 9.023438 6.957031 9.015625 L 7.335938 5.050781 C 7.371094 4.710938 7.65625 4.449219 8 4.449219 C 8.34375 4.449219 8.628906 4.710938 8.664062 5.050781 L 9.039062 8.992188 Z M 1.777344 13.335938 L 15.109375 13.335938 C 15.601562 13.335938 16 13.730469 16 14.222656 C 16 14.714844 15.601562 15.113281 15.109375 15.113281 L 0.890625 15.113281 C 0.398438 15.113281 0 14.714844 0 14.222656 C 0 13.730469 0.398438 13.335938 0.890625 13.335938 Z M 8 0.890625 C 8.371094 0.890625 8.667969 1.1875 8.667969 1.554688 L 8.667969 2.890625 C 8.667969 3.257812 8.371094 3.554688 8 3.554688 C 7.628906 3.554688 7.332031 3.257812 7.332031 2.890625 L 7.332031 1.554688 C 7.332031 1.1875 7.628906 0.890625 8 0.890625 Z M 8 0.890625 "/>
</g>
</svg>
