<?xml version="1.0" encoding="UTF-8"?>
<svg xmlns="http://www.w3.org/2000/svg" xmlns:xlink="http://www.w3.org/1999/xlink" width="16px" height="16px" viewBox="0 0 16 16" version="1.1">
<g id="surface1">
<path style=" stroke:none;fill-rule:nonzero;fill:rgb(7.843137%,82.745098%,14.901961%);fill-opacity:1;" d="M 14.652344 7.984375 C 14.652344 7.117188 15.203125 6.367188 15.957031 6.074219 C 15.753906 5.238281 15.40625 4.425781 14.972656 3.703125 C 14.710938 3.820312 14.421875 3.878906 14.132812 3.878906 C 13.613281 3.878906 13.09375 3.675781 12.6875 3.273438 C 12.082031 2.664062 11.933594 1.738281 12.253906 0.988281 C 11.53125 0.550781 10.75 0.203125 9.882812 0 C 9.621094 0.78125 8.867188 1.332031 8 1.332031 C 7.132812 1.332031 6.382812 0.78125 6.089844 0.0273438 C 5.25 0.230469 4.441406 0.578125 3.71875 1.011719 C 4.066406 1.765625 3.921875 2.664062 3.285156 3.296875 C 2.878906 3.703125 2.359375 3.902344 1.835938 3.902344 C 1.546875 3.902344 1.257812 3.84375 1 3.726562 C 0.566406 4.449219 0.21875 5.261719 0.015625 6.101562 C 0.769531 6.390625 1.320312 7.140625 1.320312 8.007812 C 1.320312 8.878906 0.769531 9.628906 0.015625 9.917969 C 0.21875 10.757812 0.566406 11.570312 1 12.289062 C 1.257812 12.175781 1.550781 12.117188 1.835938 12.117188 C 2.359375 12.117188 2.878906 12.320312 3.285156 12.722656 C 3.890625 13.328125 4.039062 14.257812 3.71875 15.007812 C 4.441406 15.441406 5.253906 15.789062 6.089844 15.992188 C 6.382812 15.238281 7.132812 14.6875 8 14.6875 C 8.867188 14.6875 9.617188 15.238281 9.910156 15.992188 C 10.746094 15.789062 11.558594 15.441406 12.28125 15.007812 C 11.960938 14.253906 12.078125 13.355469 12.714844 12.722656 C 13.121094 12.316406 13.640625 12.117188 14.164062 12.117188 C 14.453125 12.117188 14.742188 12.175781 15 12.289062 C 15.433594 11.570312 15.78125 10.757812 15.984375 9.917969 C 15.175781 9.605469 14.652344 8.851562 14.652344 7.984375 Z M 8.027344 11.285156 C 6.207031 11.285156 4.699219 9.808594 4.699219 7.957031 C 4.699219 6.101562 6.175781 4.628906 8.027344 4.628906 C 9.882812 4.628906 11.355469 6.164062 11.355469 7.984375 C 11.355469 9.804688 9.882812 11.285156 8.027344 11.285156 Z M 8.027344 11.285156 "/>
</g>
</svg>
