<?xml version="1.0" encoding="UTF-8"?>
<svg xmlns="http://www.w3.org/2000/svg" xmlns:xlink="http://www.w3.org/1999/xlink" width="16px" height="16px" viewBox="0 0 16 16" version="1.1">
<g id="surface1">
<path style=" stroke:none;fill-rule:nonzero;fill:rgb(1.176471%,66.27451%,95.686275%);fill-opacity:1;" d="M 8.800781 12.800781 L 2.398438 12.800781 C 1.957031 12.796875 1.601562 12.441406 1.601562 12 L 1.601562 4.800781 C 1.601562 4.359375 1.957031 4 2.398438 4 L 3.199219 4 C 4.527344 4 5.597656 2.925781 5.601562 1.601562 L 10.398438 1.601562 C 10.402344 2.925781 11.472656 4 12.800781 4 L 13.601562 4 C 14.042969 4 14.398438 4.359375 14.398438 4.800781 L 14.398438 7.601562 C 14.398438 8.042969 14.757812 8.398438 15.199219 8.398438 C 15.640625 8.398438 16 8.042969 16 7.601562 L 16 4.800781 C 16 3.472656 14.925781 2.402344 13.601562 2.398438 L 12.800781 2.398438 C 12.359375 2.398438 12 2.042969 12 1.601562 C 12 0.714844 11.285156 0 10.398438 0 L 5.601562 0 C 4.714844 0 4 0.714844 4 1.601562 C 4 2.042969 3.640625 2.398438 3.199219 2.398438 L 2.398438 2.398438 C 1.074219 2.402344 0 3.472656 0 4.800781 L 0 12 C 0 13.324219 1.074219 14.398438 2.398438 14.398438 L 8.800781 14.398438 C 9.242188 14.398438 9.601562 14.042969 9.601562 13.601562 C 9.601562 13.15625 9.242188 12.800781 8.800781 12.800781 Z M 8.800781 12.800781 "/>
<path style=" stroke:none;fill-rule:nonzero;fill:rgb(1.176471%,66.27451%,95.686275%);fill-opacity:1;" d="M 4.800781 8 C 4.800781 9.765625 6.230469 11.199219 8 11.199219 C 9.765625 11.199219 11.199219 9.765625 11.199219 8 C 11.199219 6.234375 9.765625 4.800781 8 4.800781 C 6.230469 4.800781 4.800781 6.234375 4.800781 8 C 4.800781 8.441406 5.15625 8.800781 5.601562 8.800781 C 6.042969 8.800781 6.398438 8.441406 6.398438 8 C 6.402344 7.117188 7.117188 6.402344 8 6.398438 C 8.882812 6.402344 9.597656 7.117188 9.601562 8 C 9.597656 8.882812 8.882812 9.597656 8 9.601562 C 7.117188 9.597656 6.402344 8.882812 6.398438 8 C 6.398438 7.558594 6.042969 7.199219 5.601562 7.199219 C 5.15625 7.199219 4.800781 7.558594 4.800781 8 Z M 4.800781 8 "/>
<path style=" stroke:none;fill-rule:nonzero;fill:rgb(1.176471%,66.27451%,95.686275%);fill-opacity:1;" d="M 12.933594 9.957031 L 11.335938 12.355469 C 11.171875 12.601562 11.15625 12.917969 11.292969 13.175781 C 11.433594 13.4375 11.703125 13.601562 12 13.601562 L 13.703125 13.601562 L 12.933594 14.757812 C 12.6875 15.125 12.789062 15.621094 13.15625 15.867188 C 13.523438 16.109375 14.019531 16.011719 14.265625 15.644531 L 15.863281 13.242188 C 16.027344 12.996094 16.042969 12.683594 15.90625 12.421875 C 15.765625 12.160156 15.496094 12 15.199219 12 L 13.496094 12 L 14.265625 10.84375 C 14.511719 10.476562 14.410156 9.980469 14.042969 9.734375 C 13.675781 9.488281 13.179688 9.589844 12.933594 9.957031 Z M 12.933594 9.957031 "/>
</g>
</svg>
