<?xml version="1.0" encoding="UTF-8"?>
<svg xmlns="http://www.w3.org/2000/svg" xmlns:xlink="http://www.w3.org/1999/xlink" width="16px" height="16px" viewBox="0 0 16 16" version="1.1">
<g id="surface1">
<path style=" stroke:none;fill-rule:nonzero;fill:rgb(95.686275%,26.274511%,21.176471%);fill-opacity:1;" d="M 14.667969 2.445312 C 14.667969 2.074219 14.371094 1.777344 14 1.777344 C 13.628906 1.777344 13.332031 2.074219 13.332031 2.445312 L 13.332031 2.667969 L 0.890625 2.667969 C 0.398438 2.667969 0 3.0625 0 3.554688 L 0 6.667969 C 0 7.160156 0.398438 7.554688 0.890625 7.554688 L 1.167969 7.554688 C 1.746094 7.554688 2.167969 8.101562 2.027344 8.660156 L 0.917969 13.117188 C 0.851562 13.382812 0.910156 13.664062 1.078125 13.878906 C 1.246094 14.097656 1.503906 14.222656 1.777344 14.222656 L 4.445312 14.222656 C 4.851562 14.222656 5.207031 13.945312 5.304688 13.550781 L 6.027344 10.667969 L 8.929688 10.667969 C 9.585938 10.667969 10.171875 10.253906 10.390625 9.632812 L 11.136719 7.554688 L 12 7.554688 C 12.234375 7.554688 12.460938 7.460938 12.628906 7.292969 L 13.257812 6.664062 L 15.109375 6.664062 C 15.601562 6.664062 16 6.269531 16 5.777344 L 16 3.554688 C 16 3.0625 15.601562 2.667969 15.109375 2.667969 L 14.667969 2.667969 Z M 8.929688 9.332031 L 6.359375 9.332031 L 6.804688 7.554688 L 9.722656 7.554688 L 9.140625 9.1875 C 9.109375 9.273438 9.023438 9.332031 8.929688 9.332031 Z M 2.222656 4.445312 L 12.890625 4.445312 C 13.132812 4.445312 13.332031 4.644531 13.332031 4.890625 C 13.332031 5.132812 13.132812 5.332031 12.890625 5.332031 L 2.222656 5.332031 C 1.976562 5.332031 1.777344 5.132812 1.777344 4.890625 C 1.777344 4.644531 1.976562 4.445312 2.222656 4.445312 Z M 2.222656 4.445312 "/>
</g>
</svg>
