<?xml version="1.0" encoding="UTF-8"?>
<svg xmlns="http://www.w3.org/2000/svg" xmlns:xlink="http://www.w3.org/1999/xlink" width="16px" height="16px" viewBox="0 0 16 16" version="1.1">
<g id="surface1">
<path style=" stroke:none;fill-rule:nonzero;fill:rgb(24.705882%,31.764706%,70.980392%);fill-opacity:1;" d="M 15.414062 15.386719 C 15.296875 15.421875 15.242188 15.363281 15.179688 15.335938 C 13.476562 14.523438 11.761719 13.734375 10.121094 12.800781 C 10.074219 12.773438 10.019531 12.746094 9.960938 12.722656 L 9.949219 12.714844 C 9.671875 12.597656 9.542969 12.636719 9.386719 12.90625 C 9.324219 13.015625 9.257812 13.152344 9.195312 13.292969 L 9.183594 13.320312 C 8.816406 14.148438 8.449219 14.976562 8.074219 15.804688 C 8.046875 15.867188 8.035156 15.945312 7.949219 16 C 7.8125 15.714844 7.675781 15.433594 7.546875 15.152344 C 7.226562 14.46875 6.90625 13.789062 6.589844 13.105469 C 6.546875 13.011719 6.503906 12.933594 6.457031 12.859375 L 6.464844 12.867188 C 6.332031 12.65625 6.183594 12.609375 5.953125 12.699219 C 5.847656 12.746094 5.761719 12.792969 5.675781 12.84375 L 5.6875 12.835938 C 4.035156 13.734375 2.371094 14.597656 0.710938 15.46875 C 0.679688 15.492188 0.636719 15.507812 0.59375 15.507812 C 0.585938 15.507812 0.582031 15.507812 0.578125 15.507812 C 0.515625 15.445312 0.589844 15.394531 0.613281 15.34375 C 1.417969 13.617188 2.207031 11.882812 3.160156 10.234375 C 3.183594 10.195312 3.203125 10.152344 3.222656 10.113281 C 3.367188 9.785156 3.28125 9.546875 2.949219 9.402344 C 2.644531 9.265625 2.328125 9.148438 2.023438 9.011719 C 1.347656 8.707031 0.671875 8.390625 0 8.082031 C 0.03125 7.972656 0.125 7.96875 0.191406 7.933594 C 1.066406 7.515625 1.941406 7.101562 2.824219 6.6875 C 2.863281 6.667969 2.90625 6.652344 2.945312 6.632812 C 3.347656 6.433594 3.402344 6.273438 3.183594 5.878906 C 2.660156 4.941406 2.164062 3.992188 1.671875 3.042969 C 1.28125 2.296875 0.894531 1.546875 0.511719 0.792969 C 0.484375 0.742188 0.425781 0.699219 0.449219 0.625 C 0.535156 0.589844 0.589844 0.652344 0.652344 0.679688 C 2.367188 1.503906 4.089844 2.316406 5.753906 3.246094 C 5.761719 3.25 5.769531 3.257812 5.777344 3.261719 C 6.199219 3.488281 6.355469 3.441406 6.558594 2.996094 C 6.976562 2.082031 7.386719 1.164062 7.800781 0.246094 C 7.839844 0.164062 7.851562 0.0703125 7.949219 0 C 8.121094 0.378906 8.292969 0.753906 8.460938 1.128906 C 8.726562 1.71875 8.988281 2.304688 9.25 2.894531 C 9.265625 2.925781 9.28125 2.960938 9.296875 2.992188 C 9.511719 3.449219 9.679688 3.503906 10.125 3.253906 C 11.769531 2.324219 13.457031 1.480469 15.140625 0.628906 C 15.183594 0.605469 15.226562 0.5625 15.289062 0.574219 C 15.324219 0.652344 15.261719 0.710938 15.234375 0.769531 C 14.433594 2.488281 13.636719 4.210938 12.707031 5.863281 C 12.703125 5.871094 12.699219 5.878906 12.695312 5.886719 C 12.472656 6.300781 12.515625 6.453125 12.949219 6.648438 C 13.871094 7.070312 14.78125 7.527344 15.691406 7.976562 L 15.839844 8.054688 C 15.804688 8.15625 15.703125 8.160156 15.628906 8.191406 C 14.769531 8.578125 13.90625 8.960938 13.046875 9.347656 C 12.5 9.589844 12.449219 9.746094 12.742188 10.261719 C 13.691406 11.9375 14.539062 13.660156 15.414062 15.386719 Z M 3.785156 3.878906 C 3.777344 3.851562 3.757812 3.832031 3.738281 3.855469 C 3.71875 3.875 3.742188 3.890625 3.765625 3.894531 C 3.789062 4.050781 3.886719 4.179688 3.953125 4.3125 C 4.433594 5.242188 4.914062 6.160156 5.398438 7.089844 C 4.761719 7.390625 4.128906 7.695312 3.46875 8.007812 C 4.125 8.351562 4.769531 8.628906 5.410156 8.921875 C 4.8125 9.988281 4.308594 11.074219 3.824219 12.167969 L 3.875 12.207031 C 4.921875 11.65625 5.972656 11.101562 7.035156 10.546875 L 7.96875 12.515625 L 8.855469 10.539062 C 9.929688 11.128906 11.011719 11.640625 12.128906 12.148438 C 12.121094 12.113281 12.117188 12.082031 12.105469 12.050781 L 12.109375 12.054688 C 11.613281 11.066406 11.121094 10.074219 10.589844 9.105469 C 10.480469 8.90625 10.480469 8.90625 10.695312 8.8125 C 11.109375 8.625 11.523438 8.445312 11.933594 8.257812 C 12.078125 8.191406 12.234375 8.148438 12.394531 8.027344 L 10.488281 7.089844 C 11.082031 6.011719 11.625 4.914062 12.121094 3.800781 C 11.011719 4.328125 9.929688 4.871094 8.851562 5.46875 L 7.941406 3.449219 C 7.628906 4.136719 7.332031 4.792969 7.03125 5.460938 C 6.070312 4.929688 5.101562 4.46875 4.136719 4.015625 C 4.023438 3.960938 3.917969 3.886719 3.785156 3.875 Z M 3.785156 3.878906 "/>
<path style=" stroke:none;fill-rule:nonzero;fill:rgb(24.705882%,31.764706%,70.980392%);fill-opacity:1;" d="M 7.953125 6.386719 C 8.828125 6.394531 9.535156 7.101562 9.535156 7.980469 C 9.535156 8.859375 8.824219 9.570312 7.945312 9.570312 C 7.066406 9.570312 6.355469 8.859375 6.355469 7.980469 L 6.355469 7.976562 C 6.359375 7.097656 7.070312 6.386719 7.949219 6.386719 Z M 8.398438 7.96875 C 8.394531 7.726562 8.195312 7.53125 7.953125 7.53125 C 7.707031 7.53125 7.507812 7.730469 7.507812 7.976562 L 7.507812 7.988281 C 7.519531 8.226562 7.714844 8.417969 7.957031 8.417969 C 7.964844 8.417969 7.972656 8.417969 7.976562 8.417969 C 8.214844 8.402344 8.398438 8.207031 8.398438 7.964844 Z M 8.398438 7.96875 "/>
</g>
</svg>
