<?xml version="1.0" encoding="UTF-8"?>
<svg xmlns="http://www.w3.org/2000/svg" xmlns:xlink="http://www.w3.org/1999/xlink" width="16px" height="16px" viewBox="0 0 16 16" version="1.1">
<g id="surface1">
<path style=" stroke:none;fill-rule:nonzero;fill:rgb(40.392157%,22.745098%,71.764706%);fill-opacity:1;" d="M 8 1.332031 C 7.023438 1.335938 6.195312 2.042969 6.035156 3.003906 C 3.355469 3.929688 1.691406 6.605469 2.046875 9.417969 C 2.089844 9.75 2.371094 10 2.707031 10 C 2.734375 10 2.765625 10 2.792969 9.996094 C 3.15625 9.949219 3.414062 9.613281 3.371094 9.25 C 3.101562 7.140625 4.304688 5.121094 6.285156 4.34375 C 6.777344 5.175781 7.792969 5.535156 8.699219 5.199219 C 9.605469 4.863281 10.140625 3.925781 9.96875 2.972656 C 9.796875 2.023438 8.964844 1.332031 8 1.332031 Z M 8 4 C 7.632812 4 7.332031 3.703125 7.332031 3.332031 C 7.332031 2.964844 7.632812 2.667969 8 2.667969 C 8.367188 2.667969 8.667969 2.964844 8.667969 3.332031 C 8.667969 3.703125 8.367188 4 8 4 Z M 5.332031 8.667969 C 5.332031 10.140625 6.527344 11.332031 8 11.332031 C 9.472656 11.332031 10.667969 10.140625 10.667969 8.667969 C 10.667969 7.195312 9.472656 6 8 6 C 6.527344 6 5.332031 7.195312 5.332031 8.667969 Z M 9.332031 8.667969 C 9.332031 9.402344 8.738281 10 8 10 C 7.261719 10 6.667969 9.402344 6.667969 8.667969 C 6.667969 7.929688 7.261719 7.332031 8 7.332031 C 8.738281 7.332031 9.332031 7.929688 9.332031 8.667969 Z M 4 14.667969 C 4.535156 14.667969 5.050781 14.449219 5.421875 14.066406 C 8.167969 15.382812 11.464844 14.425781 13.082031 11.847656 C 14.699219 9.269531 14.128906 5.886719 11.75 3.988281 C 11.460938 3.761719 11.046875 3.8125 10.820312 4.097656 C 10.59375 4.378906 10.636719 4.796875 10.917969 5.027344 C 12.777344 6.503906 13.226562 9.144531 11.960938 11.15625 C 10.695312 13.164062 8.117188 13.898438 5.984375 12.855469 C 6.058594 12.035156 5.625 11.253906 4.886719 10.886719 C 4.148438 10.519531 3.261719 10.644531 2.652344 11.199219 C 2.042969 11.753906 1.839844 12.625 2.136719 13.394531 C 2.4375 14.164062 3.175781 14.667969 4 14.667969 Z M 4 12 C 4.367188 12 4.667969 12.296875 4.667969 12.667969 C 4.667969 13.035156 4.367188 13.332031 4 13.332031 C 3.632812 13.332031 3.332031 13.035156 3.332031 12.667969 C 3.332031 12.296875 3.632812 12 4 12 Z M 4 12 "/>
</g>
</svg>
