<svg xmlns="http://www.w3.org/2000/svg" xmlns:xlink="http://www.w3.org/1999/xlink" width="16px" height="16px" viewBox="0 0 16 16" version="1.1">
<g id="surface1">
<path style=" stroke:none;fill-rule:nonzero;fill:#3f51b5;fill-opacity:1;" d="M 8 16 C 3.582031 16 0 12.417969 0 8 C 0 3.582031 3.582031 0 8 0 C 12.417969 0 16 3.582031 16 8 C 16 12.417969 12.417969 16 8 16 Z M 10.617188 7 L 9.601562 7 C 9.269531 7 9 7.269531 9 7.601562 C 9 7.929688 9.269531 8.199219 9.601562 8.199219 L 11.800781 8.199219 C 12.132812 8.199219 12.398438 7.929688 12.398438 7.601562 L 12.398438 5 C 12.398438 4.667969 12.132812 4.398438 11.800781 4.398438 C 11.46875 4.398438 11.199219 4.667969 11.199219 5 L 11.199219 5.601562 C 10.46875 4.628906 9.308594 4 8 4 C 6.769531 4 5.675781 4.527344 4.9375 5.417969 C 4.726562 5.671875 4.761719 6.050781 5.015625 6.261719 C 5.269531 6.472656 5.648438 6.4375 5.859375 6.183594 C 6.371094 5.570312 7.125 5.199219 8 5.199219 C 9.195312 5.199219 10.214844 5.949219 10.617188 7 Z M 4.800781 11 L 4.800781 10.398438 C 5.53125 11.371094 6.691406 12 8 12 C 9.21875 12 10.324219 11.453125 11.058594 10.589844 C 11.273438 10.335938 11.242188 9.957031 10.988281 9.742188 C 10.734375 9.53125 10.355469 9.558594 10.144531 9.8125 C 9.628906 10.417969 8.855469 10.800781 8 10.800781 C 6.882812 10.800781 5.917969 10.144531 5.46875 9.199219 L 6.398438 9.199219 C 6.730469 9.199219 7 8.929688 7 8.601562 C 7 8.269531 6.730469 8 6.398438 8 L 4.199219 8 C 3.867188 8 3.601562 8.269531 3.601562 8.601562 L 3.601562 11 C 3.601562 11.332031 3.867188 11.601562 4.199219 11.601562 C 4.53125 11.601562 4.800781 11.332031 4.800781 11 Z M 4.800781 11 "/>
</g>
</svg>