<?xml version="1.0" encoding="UTF-8"?>
<svg xmlns="http://www.w3.org/2000/svg" xmlns:xlink="http://www.w3.org/1999/xlink" width="16px" height="16px" viewBox="0 0 16 16" version="1.1">
<defs>
<filter id="alpha" filterUnits="objectBoundingBox" x="0%" y="0%" width="100%" height="100%">
  <feColorMatrix type="matrix" in="SourceGraphic" values="0 0 0 0 1 0 0 0 0 1 0 0 0 0 1 0 0 0 1 0"/>
</filter>
<mask id="mask0">
  <g filter="url(#alpha)">
<rect x="0" y="0" width="16" height="16" style="fill:rgb(0%,0%,0%);fill-opacity:0.2;stroke:none;"/>
  </g>
</mask>
<clipPath id="clip1">
  <rect x="0" y="0" width="16" height="16"/>
</clipPath>
<g id="surface5" clip-path="url(#clip1)">
<path style=" stroke:none;fill-rule:nonzero;fill:rgb(0%,0%,0%);fill-opacity:1;" d="M 0.5 5 L 0.5 11 C 0.5 11.277344 0.722656 11.5 1 11.5 L 1.5 11.5 L 1.5 4.5 L 1 4.5 C 0.722656 4.5 0.5 4.722656 0.5 5 Z M 0.5 5 "/>
</g>
</defs>
<g id="surface1">
<path style=" stroke:none;fill-rule:nonzero;fill:rgb(22.352941%,25.882353%,25.098039%);fill-opacity:1;" d="M 15.25 7.25 L 12.25 7.25 C 11.835938 7.25 11.5 7.585938 11.5 8 C 11.5 8.414062 11.835938 8.75 12.25 8.75 L 15.25 8.75 C 15.664062 8.75 16 8.414062 16 8 C 16 7.585938 15.664062 7.25 15.25 7.25 Z M 15.25 8.25 L 12.25 8.25 C 12.113281 8.25 12 8.136719 12 8 C 12 7.863281 12.113281 7.75 12.25 7.75 L 15.25 7.75 C 15.386719 7.75 15.5 7.863281 15.5 8 C 15.5 8.136719 15.386719 8.25 15.25 8.25 Z M 15.25 8.25 "/>
<path style=" stroke:none;fill-rule:nonzero;fill:rgb(22.352941%,25.882353%,25.098039%);fill-opacity:1;" d="M 14.828125 11.140625 L 12.007812 10.117188 C 11.621094 9.976562 11.191406 10.175781 11.046875 10.566406 C 10.90625 10.953125 11.105469 11.382812 11.496094 11.527344 L 14.316406 12.550781 C 14.703125 12.695312 15.132812 12.492188 15.277344 12.105469 C 15.417969 11.714844 15.21875 11.285156 14.828125 11.140625 Z M 14.808594 11.933594 C 14.757812 12.0625 14.617188 12.128906 14.488281 12.082031 L 11.667969 11.054688 C 11.539062 11.007812 11.472656 10.867188 11.519531 10.734375 C 11.566406 10.605469 11.707031 10.539062 11.839844 10.585938 L 14.65625 11.613281 C 14.785156 11.660156 14.855469 11.804688 14.808594 11.933594 Z M 14.808594 11.933594 "/>
<path style=" stroke:none;fill-rule:nonzero;fill:rgb(22.352941%,25.882353%,25.098039%);fill-opacity:1;" d="M 12.007812 5.882812 L 14.828125 4.855469 C 15.21875 4.714844 15.417969 4.285156 15.277344 3.894531 C 15.132812 3.507812 14.703125 3.304688 14.316406 3.445312 L 11.496094 4.472656 C 11.105469 4.613281 10.90625 5.046875 11.046875 5.433594 C 11.1875 5.824219 11.621094 6.023438 12.007812 5.882812 Z M 11.667969 4.941406 L 14.484375 3.917969 C 14.617188 3.871094 14.757812 3.9375 14.804688 4.066406 C 14.851562 4.195312 14.785156 4.339844 14.65625 4.386719 L 11.835938 5.414062 C 11.707031 5.460938 11.566406 5.394531 11.515625 5.265625 C 11.46875 5.132812 11.535156 4.992188 11.667969 4.941406 Z M 11.667969 4.941406 "/>
<path style=" stroke:none;fill-rule:nonzero;fill:rgb(22.352941%,25.882353%,25.098039%);fill-opacity:1;" d="M 9.382812 0.078125 C 9.007812 -0.078125 8.578125 0.0078125 8.292969 0.292969 L 4.714844 3.871094 C 4.714844 3.871094 4.609375 4 4.375 4 C 4.074219 4 1 4 1 4 C 0.445312 4 0 4.449219 0 5 L 0 11 C 0 11.554688 0.445312 12 1 12 L 4.335938 12 C 4.335938 12 4.613281 12.027344 4.753906 12.167969 C 4.894531 12.308594 8.292969 15.707031 8.292969 15.707031 C 8.484375 15.898438 8.742188 16 9 16 C 9.128906 16 9.257812 15.976562 9.382812 15.921875 C 9.757812 15.769531 10 15.402344 10 15 L 10 1 C 10 0.597656 9.757812 0.230469 9.382812 0.078125 Z M 1.5 11.5 L 1 11.5 C 0.722656 11.5 0.5 11.277344 0.5 11 L 0.5 5 C 0.5 4.722656 0.722656 4.5 1 4.5 L 1.5 4.5 Z M 3 11.5 L 2 11.5 L 2 4.5 L 3 4.5 Z M 9.5 15 C 9.5 15.5 8.953125 15.703125 8.5 15.25 C 8.222656 14.972656 5 11.75 5 11.75 C 4.8125 11.5625 4.640625 11.5 4.375 11.5 L 3.5 11.5 L 3.5 4.5 L 4.375 4.5 C 4.640625 4.5 4.75 4.5 5 4.25 C 5 4.25 8.191406 1.058594 8.5 0.75 C 8.945312 0.304688 9.5 0.507812 9.5 1 Z M 9.5 15 "/>
<path style=" stroke:none;fill-rule:nonzero;fill:rgb(27.058824%,66.666667%,72.156863%);fill-opacity:1;" d="M 2 4.5 L 3 4.5 L 3 11.5 L 2 11.5 Z M 2 4.5 "/>
<path style=" stroke:none;fill-rule:nonzero;fill:rgb(96.862745%,42.745098%,34.117647%);fill-opacity:1;" d="M 0.5 5 L 0.5 11 C 0.5 11.277344 0.722656 11.5 1 11.5 L 1.5 11.5 L 1.5 4.5 L 1 4.5 C 0.722656 4.5 0.5 4.722656 0.5 5 Z M 0.5 5 "/>
<path style=" stroke:none;fill-rule:nonzero;fill:rgb(96.862745%,42.745098%,34.117647%);fill-opacity:1;" d="M 8.5 0.75 C 8.191406 1.058594 5 4.25 5 4.25 C 4.75 4.5 4.640625 4.5 4.375 4.5 L 3.5 4.5 L 3.5 11.5 L 4.375 11.5 C 4.640625 11.5 4.8125 11.5625 5 11.75 C 5 11.75 8.222656 14.972656 8.5 15.25 C 8.953125 15.703125 9.5 15.5 9.5 15 C 9.5 14.734375 9.5 1.265625 9.5 1 C 9.5 0.507812 8.945312 0.304688 8.5 0.75 Z M 8.5 0.75 "/>
<path style=" stroke:none;fill-rule:nonzero;fill:rgb(70.588235%,80%,72.54902%);fill-opacity:1;" d="M 11.839844 5.414062 L 14.65625 4.386719 C 14.785156 4.339844 14.855469 4.195312 14.804688 4.066406 C 14.757812 3.9375 14.617188 3.871094 14.484375 3.917969 L 11.667969 4.941406 C 11.539062 4.992188 11.46875 5.132812 11.519531 5.261719 C 11.566406 5.394531 11.707031 5.460938 11.839844 5.414062 Z M 11.839844 5.414062 "/>
<path style=" stroke:none;fill-rule:nonzero;fill:rgb(70.588235%,80%,72.54902%);fill-opacity:1;" d="M 15.25 7.75 L 12.25 7.75 C 12.113281 7.75 12 7.863281 12 8 C 12 8.136719 12.113281 8.25 12.25 8.25 L 15.25 8.25 C 15.386719 8.25 15.5 8.136719 15.5 8 C 15.5 7.863281 15.386719 7.75 15.25 7.75 Z M 15.25 7.75 "/>
<path style=" stroke:none;fill-rule:nonzero;fill:rgb(70.588235%,80%,72.54902%);fill-opacity:1;" d="M 14.65625 11.613281 L 11.839844 10.585938 C 11.707031 10.539062 11.566406 10.605469 11.519531 10.734375 C 11.472656 10.867188 11.539062 11.007812 11.667969 11.054688 L 14.488281 12.082031 C 14.617188 12.128906 14.757812 12.0625 14.808594 11.933594 C 14.855469 11.804688 14.785156 11.660156 14.65625 11.613281 Z M 14.65625 11.613281 "/>
<use xlink:href="#surface5" mask="url(#mask0)"/>
</g>
</svg>
