{
  "accessors": [
    {
      "bufferView": 2,
      "componentType": 5126,
      "count": 146,
      "max": [
        1.0,
        3.9298481941223145,
        0.7206763625144958
      ],
      "min": [
        -1.0,
        -1.003702998161316,
        -5.393462181091309
      ],
      "type": "VEC3"
    },
    {
      "bufferView": 2,
      "byteOffset": 1752,
      "componentType": 5126,
      "count": 146,
      "max": [
        1.0,
        0.952275812625885,
        1.0
      ],
      "min": [
        -1.0,
        -0.9989789128303528,
        -0.7025765180587769
      ],
      "type": "VEC3"
    },
    {
      "bufferView": 1,
      "componentType": 5126,
      "count": 146,
      "max": [
        0.5458594560623169,
        0.9998403191566467
      ],
      "min": [
        0.00015972519759088755,
        0.031786348670721054
      ],
      "type": "VEC2"
    },
    {
      "bufferView": 0,
      "componentType": 5125,
      "count": 228,
      "type": "SCALAR"
    },
    {
      "bufferView": 2,
      "byteOffset": 3504,
      "componentType": 5126,
      "count": 1088,
      "max": [
        1.9426472187042236,
        14.314075469970703,
        18.59891700744629
      ],
      "min": [
        -1.5815825462341309,
        -2.4524433612823486,
        -60.03864288330078
      ],
      "type": "VEC3"
    },
    {
      "bufferView": 2,
      "byteOffset": 16560,
      "componentType": 5126,
      "count": 1088,
      "max": [
        1.0,
        1.0,
        1.0
      ],
      "min": [
        -1.0,
        -1.0,
        -1.0
      ],
      "type": "VEC3"
    },
    {
      "bufferView": 1,
      "byteOffset": 1168,
      "componentType": 5126,
      "count": 1088,
      "max": [
        0.9998043179512024,
        0.9824010729789734
      ],
      "min": [
        0.010178036987781525,
        0.00019570370204746723
      ],
      "type": "VEC2"
    },
    {
      "bufferView": 0,
      "byteOffset": 912,
      "componentType": 5125,
      "count": 1662,
      "type": "SCALAR"
    },
    {
      "bufferView": 2,
      "byteOffset": 29616,
      "componentType": 5126,
      "count": 52,
      "max": [
        0.23049867153167725,
        1.2358241081237793,
        1.3839162588119507
      ],
      "min": [
        -0.23049867153167725,
        -1.8751564025878906,
        -1.4378408193588257
      ],
      "type": "VEC3"
    },
    {
      "bufferView": 2,
      "byteOffset": 30240,
      "componentType": 5126,
      "count": 52,
      "max": [
        1.0,
        0.8237886428833008,
        0.9905021786689758
      ],
      "min": [
        -1.0,
        -0.737898051738739,
        -0.9054847955703735
      ],
      "type": "VEC3"
    },
    {
      "bufferView": 1,
      "byteOffset": 9872,
      "componentType": 5126,
      "count": 52,
      "max": [
        0.12894412875175476,
        0.8768335580825806
      ],
      "min": [
        0.038845259696245193,
        0.7823581099510193
      ],
      "type": "VEC2"
    },
    {
      "bufferView": 0,
      "byteOffset": 7560,
      "componentType": 5125,
      "count": 78,
      "type": "SCALAR"
    }
  ],
  "asset": {
    "extras": {
      "author": "Falxxx (https://sketchfab.com/Falxxx)",
      "license": "CC-BY-4.0 (http://creativecommons.org/licenses/by/4.0/)",
      "source": "https://sketchfab.com/3d-models/ps1-style-ak-47-c05cea3e51484331bfb4c75348d659ef",
      "title": "PS1 style AK-47"
    },
    "generator": "Sketchfab-12.79.0",
    "version": "2.0"
  },
  "bufferViews": [
    {
      "buffer": 0,
      "byteLength": 7872,
      "name": "floatBufferViews",
      "target": 34963
    },
    {
      "buffer": 0,
      "byteLength": 10288,
      "byteOffset": 7872,
      "byteStride": 8,
      "name": "floatBufferViews",
      "target": 34962
    },
    {
      "buffer": 0,
      "byteLength": 30864,
      "byteOffset": 18160,
      "byteStride": 12,
      "name": "floatBufferViews",
      "target": 34962
    }
  ],
  "buffers": [
    {
      "byteLength": 49024,
      "uri": "scene.bin"
    }
  ],
  "images": [
    {
      "uri": "textures/Material_baseColor.png"
    }
  ],
  "materials": [
    {
      "doubleSided": true,
      "name": "Material",
      "pbrMetallicRoughness": {
        "baseColorTexture": {
          "index": 0
        },
        "metallicFactor": 0.608001852958028
      }
    }
  ],
  "meshes": [
    {
      "name": "MAG_Material_0",
      "primitives": [
        {
          "attributes": {
            "NORMAL": 1,
            "POSITION": 0,
            "TEXCOORD_0": 2
          },
          "indices": 3,
          "material": 0,
          "mode": 4
        }
      ]
    },
    {
      "name": "GUN_Material_0",
      "primitives": [
        {
          "attributes": {
            "NORMAL": 5,
            "POSITION": 4,
            "TEXCOORD_0": 6
          },
          "indices": 7,
          "material": 0,
          "mode": 4
        }
      ]
    },
    {
      "name": "TRIGGER_Material_0",
      "primitives": [
        {
          "attributes": {
            "NORMAL": 9,
            "POSITION": 8,
            "TEXCOORD_0": 10
          },
          "indices": 11,
          "material": 0,
          "mode": 4
        }
      ]
    }
  ],
  "nodes": [
    {
      "children": [
        1
      ],
      "matrix": [
        1.0,
        0.0,
        0.0,
        0.0,
        0.0,
        2.220446049250313e-16,
        -1.0,
        0.0,
        0.0,
        1.0,
        2.220446049250313e-16,
        0.0,
        0.0,
        0.0,
        0.0,
        1.0
      ],
      "name": "Sketchfab_model"
    },
    {
      "children": [
        2
      ],
      "matrix": [
        0.009999999776482582,
        0.0,
        0.0,
        0.0,
        0.0,
        0.0,
        0.009999999776482582,
        0.0,
        0.0,
        -0.009999999776482582,
        0.0,
        0.0,
        0.0,
        0.0,
        0.0,
        1.0
      ],
      "name": "6dcc6a9f6a814001993b1d75e90fae57.fbx"
    },
    {
      "children": [
        3,
        5,
        7
      ],
      "name": "RootNode"
    },
    {
      "children": [
        4
      ],
      "matrix": [
        34.40840148925781,
        0.0,
        0.0,
        0.0,
        0.0,
        -1.629206793918314e-05,
        -99.99999999999868,
        0.0,
        0.0,
        99.99999999999868,
        -1.629206793918314e-05,
        0.0,
        2.1588018712611658e-14,
        97.22379302978516,
        114.46206665039063,
        1.0
      ],
      "name": "MAG"
    },
    {
      "mesh": 0,
      "name": "MAG_Material_0"
    },
    {
      "children": [
        6
      ],
      "matrix": [
        37.203102111816406,
        8.260748110403873e-15,
        -8.26074712564596e-15,
        0.0,
        8.260746863065665e-15,
        -37.203102111815994,
        -5.617512132292149e-06,
        0.0,
        -8.260748372984129e-15,
        5.617512132292149e-06,
        -37.203102111815994,
        0.0,
        8.861926356585823e-14,
        328.3173522949219,
        -738.8502807617188,
        1.0
      ],
      "name": "GUN"
    },
    {
      "mesh": 1,
      "name": "GUN_Material_0"
    },
    {
      "children": [
        8
      ],
      "matrix": [
        37.203102111816406,
        8.260748110403873e-15,
        -8.26074712564596e-15,
        0.0,
        8.260746863065665e-15,
        -37.203102111815994,
        -5.617512132292149e-06,
        0.0,
        -8.260748372984129e-15,
        5.617512132292149e-06,
        -37.203102111815994,
        0.0,
        3.930694203284346e-13,
        105.8114013671875,
        409.7654724121094,
        1.0
      ],
      "name": "TRIGGER"
    },
    {
      "mesh": 2,
      "name": "TRIGGER_Material_0"
    }
  ],
  "samplers": [
    {
      "magFilter": 9729,
      "minFilter": 9987,
      "wrapS": 10497,
      "wrapT": 10497
    }
  ],
  "scene": 0,
  "scenes": [
    {
      "name": "Sketchfab_Scene",
      "nodes": [
        0
      ]
    }
  ],
  "textures": [
    {
      "sampler": 0,
      "source": 0
    }
  ]
}
