<?xml version="1.0" encoding="UTF-8"?>
<svg xmlns="http://www.w3.org/2000/svg" xmlns:xlink="http://www.w3.org/1999/xlink" width="16px" height="16px" viewBox="0 0 16 16" version="1.1">
<g id="surface1">
<path style=" stroke:none;fill-rule:evenodd;fill:rgb(95.686275%,26.27451%,21.176471%);fill-opacity:1;" d="M 1.601562 13.757812 L 1.601562 6.820312 L 2.664062 6.820312 L 2.664062 13.753906 C 2.664062 14.046875 2.902344 14.289062 3.199219 14.289062 L 12.800781 14.289062 C 13.09375 14.289062 13.335938 14.050781 13.335938 13.753906 L 13.335938 6.820312 L 14.398438 6.820312 L 14.398438 13.753906 C 14.398438 14.636719 13.683594 15.351562 12.800781 15.351562 L 3.199219 15.351562 C 2.316406 15.355469 1.601562 14.636719 1.601562 13.757812 Z M 13.335938 2.023438 L 13.335938 5.757812 L 11.199219 3.621094 L 11.199219 2.023438 C 11.199219 1.726562 11.4375 1.488281 11.734375 1.488281 L 12.800781 1.488281 C 13.09375 1.492188 13.335938 1.726562 13.335938 2.023438 Z M 13.335938 2.023438 "/>
<path style=" stroke:none;fill-rule:evenodd;fill:rgb(95.686275%,26.27451%,21.176471%);fill-opacity:1;" d="M 7.246094 0.957031 C 7.664062 0.539062 8.335938 0.539062 8.757812 0.957031 L 15.84375 8.042969 C 16.054688 8.253906 16.054688 8.589844 15.84375 8.800781 C 15.632812 9.007812 15.296875 9.007812 15.085938 8.800781 L 8 1.710938 L 0.914062 8.800781 C 0.703125 9.007812 0.367188 9.007812 0.15625 8.800781 C -0.0546875 8.589844 -0.0546875 8.253906 0.15625 8.042969 Z M 7.246094 0.957031 "/>
</g>
</svg>
